<svg xmlns="http://www.w3.org/2000/svg" xmlns:xlink="http://www.w3.org/1999/xlink" viewBox="0 0 2150 1520" id="solve-problems"><defs><linearGradient id="a" x1="1584.573" x2="1548.575" y1="368.613" y2="712.096" gradientUnits="userSpaceOnUse"><stop offset="0" stop-color="#060607"></stop><stop offset="1" stop-color="#1a1a2e"></stop></linearGradient><linearGradient id="l" x1="1600.95" x2="1532.95" y1="295.161" y2="378.161" gradientUnits="userSpaceOnUse"><stop offset="0" stop-color="#f7830f"></stop><stop offset=".571" stop-color="#fb620a"></stop><stop offset="1" stop-color="#ff4e08"></stop></linearGradient><linearGradient id="m" x1="1600.198" x2="1564.201" y1="370.251" y2="713.733" xlink:href="#a"></linearGradient><linearGradient id="b" x1="1626.407" x2="1638.407" y1="259.37" y2="556.371" gradientUnits="userSpaceOnUse"><stop offset="0" stop-color="#e74d58"></stop><stop offset=".645" stop-color="#b9253a"></stop><stop offset="1" stop-color="#a5142d"></stop></linearGradient><linearGradient id="n" x1="1710.458" x2="1780.117" y1="609.261" y2="663.882" xlink:href="#b"></linearGradient><linearGradient id="o" x1="1674.593" x2="1742.82" y1="1834.818" y2="1888.316" gradientTransform="rotate(36.948 3410.847 1094.026)" xlink:href="#b"></linearGradient><linearGradient id="d" x1="1694.043" x2="1786.996" y1="1413.894" y2="1413.894" gradientUnits="userSpaceOnUse"><stop offset="0" stop-color="#ffc124"></stop><stop offset="1" stop-color="#ffd97b"></stop></linearGradient><linearGradient id="e" x1="1711.171" x2="1670.448" y1="1387.903" y2="1436.924" gradientUnits="userSpaceOnUse"><stop offset="0" stop-color="#ff9700" stop-opacity="0"></stop><stop offset="1" stop-color="#ff9700" stop-opacity=".75"></stop></linearGradient><linearGradient id="f" x1="1685.19" x2="1536.977" y1="1357.229" y2="1362.399" gradientUnits="userSpaceOnUse"><stop offset="0" stop-color="#f97c15"></stop><stop offset="1" stop-color="#f96e00"></stop></linearGradient><linearGradient id="g" x1="1545.727" x2="1501.237" y1="1306.189" y2="1400.112" gradientUnits="userSpaceOnUse"><stop offset="0" stop-color="#f63500" stop-opacity="0"></stop><stop offset="1" stop-color="#f63500" stop-opacity=".75"></stop></linearGradient><linearGradient id="c" x1="1519.694" x2="1386.231" y1="1206.637" y2="1436.49" gradientUnits="userSpaceOnUse"><stop offset="0" stop-color="#fbb53d"></stop><stop offset="1" stop-color="#ff3803"></stop></linearGradient><linearGradient id="h" x1="1421.848" x2="1344.295" y1="1217.315" y2="1406.889" gradientUnits="userSpaceOnUse"><stop offset="0" stop-color="#ff0a00" stop-opacity="0"></stop><stop offset="1" stop-color="#ff0a00" stop-opacity=".75"></stop></linearGradient><linearGradient id="p" x1="1369.119" x2="1180.037" y1="1115.935" y2="1627.571" xlink:href="#c"></linearGradient><linearGradient id="q" x1="2446.271" x2="2539.224" gradientTransform="matrix(-1 0 0 1 2913.188 0)" xlink:href="#d"></linearGradient><linearGradient id="r" x1="2463.399" x2="2422.676" y1="1387.903" y2="1436.924" gradientTransform="matrix(-1 0 0 1 2913.188 0)" xlink:href="#e"></linearGradient><linearGradient id="s" x1="2437.418" x2="2289.205" y1="1357.229" y2="1362.399" gradientTransform="matrix(-1 0 0 1 2913.188 0)" xlink:href="#f"></linearGradient><linearGradient id="t" x1="2297.955" x2="2253.465" y1="1306.189" y2="1400.112" gradientTransform="matrix(-1 0 0 1 2913.188 0)" xlink:href="#g"></linearGradient><linearGradient id="u" x1="2271.922" x2="2138.459" y1="1206.637" y2="1436.49" gradientTransform="matrix(-1 0 0 1 2913.188 0)" xlink:href="#c"></linearGradient><linearGradient id="v" x1="2174.076" x2="2096.523" y1="1217.315" y2="1406.889" gradientTransform="matrix(-1 0 0 1 2913.188 0)" xlink:href="#h"></linearGradient><linearGradient id="w" x1="2121.347" x2="1932.265" y1="1115.935" y2="1627.571" gradientTransform="matrix(-1 0 0 1 2913.188 0)" xlink:href="#c"></linearGradient><linearGradient id="x" x1="1334.802" x2="1334.802" y1="1366.226" y2="-123.305" gradientUnits="userSpaceOnUse"><stop offset="0" stop-color="#fca815"></stop><stop offset="1" stop-color="#fca000"></stop></linearGradient><linearGradient id="y" x1="1327.078" x2="1327.078" y1="227.934" y2="607.779" gradientUnits="userSpaceOnUse"><stop offset="0" stop-color="#fcb63a"></stop><stop offset="1" stop-color="#fb9c00"></stop></linearGradient><linearGradient id="z" x1="1027.527" x2="1677.576" y1="26.34" y2="678.86" gradientUnits="userSpaceOnUse"><stop offset="0" stop-color="#fff"></stop><stop offset="1" stop-color="#fff" stop-opacity="0"></stop></linearGradient><linearGradient id="i" x1="902.143" x2="902.143" y1="1439.132" y2="-50.399" gradientUnits="userSpaceOnUse"><stop offset="0" stop-color="#fcb22d"></stop><stop offset="1" stop-color="#fca000"></stop></linearGradient><linearGradient id="A" x1="1333.869" x2="1333.869" y1="1439.132" y2="-50.398" xlink:href="#i"></linearGradient><linearGradient id="B" x1="1080.48" x2="1080.48" y1="401.644" y2="941.397" gradientUnits="userSpaceOnUse"><stop offset="0" stop-color="#fcb63a"></stop><stop offset="1" stop-color="#f96e00"></stop></linearGradient><linearGradient id="j" x1="977.21" x2="1183.75" y1="1421.097" y2="1421.097" gradientUnits="userSpaceOnUse"><stop offset="0" stop-color="#0f1e2d"></stop><stop offset="1" stop-color="#082947"></stop></linearGradient><linearGradient id="C" x1="1080.48" x2="1080.48" y1="1181.566" y2="1158.466" xlink:href="#j"></linearGradient><linearGradient id="D" x1="1080.479" x2="1080.479" y1="1177.154" y2="1412.498" gradientUnits="userSpaceOnUse"><stop offset="0" stop-color="#e94560"></stop><stop offset=".958" stop-color="#ad1035"></stop></linearGradient><linearGradient id="E" x1="1080.479" x2="1080.479" y1="1192.466" y2="1300.151" gradientUnits="userSpaceOnUse"><stop offset="0" stop-color="#ac1039"></stop><stop offset="1" stop-color="#ac1039" stop-opacity="0"></stop></linearGradient><linearGradient id="F" x1="1080.168" x2="1080.168" y1="1182.7" y2="1388.287" gradientUnits="userSpaceOnUse"><stop offset="0" stop-color="#9e000f" stop-opacity="0"></stop><stop offset="1" stop-color="#9e000f" stop-opacity=".8"></stop></linearGradient><linearGradient id="G" x1="1080.48" x2="1080.48" y1="782.146" y2="1164.261" gradientUnits="userSpaceOnUse"><stop offset="0" stop-color="#fff"></stop><stop offset="1" stop-color="#fff" stop-opacity="0"></stop></linearGradient><linearGradient id="k" x1="1124.877" x2="1124.877" y1="625.734" y2="294.482" gradientUnits="userSpaceOnUse"><stop offset="0" stop-color="#fc2e06"></stop><stop offset="1" stop-color="#fc6a06" stop-opacity=".25"></stop></linearGradient><linearGradient id="H" x1="1056.873" x2="739.111" y1="596.165" y2="596.165" xlink:href="#k"></linearGradient><linearGradient id="I" x1="1101.364" x2="1428.341" y1="684.962" y2="684.962" xlink:href="#k"></linearGradient><linearGradient id="J" x1="5509.52" x2="5509.52" y1="-6458.579" y2="-6662.273" gradientTransform="rotate(-180 3295 -2904.842)" gradientUnits="userSpaceOnUse"><stop offset="0" stop-color="#fc2e06"></stop><stop offset="1" stop-color="#fc6a06" stop-opacity="0"></stop></linearGradient><linearGradient id="K" x1="908.322" x2="908.322" y1="350.87" y2="1103.466" gradientUnits="userSpaceOnUse"><stop offset="0" stop-color="#9b1a00" stop-opacity=".05"></stop><stop offset="1" stop-color="#9b1a00" stop-opacity=".45"></stop></linearGradient><linearGradient id="L" x1="972.833" x2="972.833" y1="1386.636" y2="1172.885" gradientUnits="userSpaceOnUse"><stop offset="0" stop-color="#610000" stop-opacity=".5"></stop><stop offset="1" stop-color="#610000" stop-opacity="0"></stop></linearGradient><linearGradient id="M" x1="322.333" x2="322.333" y1="1157.746" y2="1320.448" xlink:href="#a"></linearGradient><linearGradient id="N" x1="332.481" x2="332.481" y1="1157.746" y2="1320.447" xlink:href="#a"></linearGradient><linearGradient id="O" x1="3069.037" x2="3069.037" y1="1314.475" y2="1360.25" gradientTransform="matrix(-1 0 0 1 3390.809 0)" xlink:href="#l"></linearGradient><linearGradient id="P" x1="3151.79" x2="3151.79" y1="1314.476" y2="1360.25" gradientTransform="matrix(-1 0 0 1 3390.809 0)" xlink:href="#l"></linearGradient><linearGradient id="Q" x1="3043.94" x2="3008.44" y1="993.897" y2="1087.897" gradientTransform="matrix(-1 0 0 1 3390.809 0)" xlink:href="#b"></linearGradient><linearGradient id="R" x1="3057.455" x2="3107.455" y1="993.749" y2="1161.083" gradientTransform="matrix(-1 0 0 1 3390.809 0)" xlink:href="#l"></linearGradient><linearGradient id="S" x1="21752.136" x2="21711.742" y1="1068.291" y2="1201.593" gradientTransform="translate(-21437.035)" gradientUnits="userSpaceOnUse"><stop offset="0" stop-color="#1a1a2e"></stop><stop offset=".988"></stop></linearGradient><linearGradient id="T" x1="3032.21" x2="3044.71" y1="1093.101" y2="1142.099" gradientTransform="matrix(-1 0 0 1 3390.809 0)" xlink:href="#l"></linearGradient><linearGradient id="U" x1="348.96" x2="350.301" y1="1126.981" y2="1101.513" gradientUnits="userSpaceOnUse"><stop offset="0" stop-color="#fd4a00"></stop><stop offset="1" stop-color="#f9760c"></stop></linearGradient><linearGradient id="V" x1="3109.095" x2="3195.595" y1="1006.685" y2="1061.685" gradientTransform="matrix(-1 0 0 1 3390.809 0)" xlink:href="#b"></linearGradient><linearGradient id="W" x1="465.167" x2="465.167" y1="1223.979" y2="1195.383" gradientUnits="userSpaceOnUse"><stop offset="0" stop-color="#fa5200"></stop><stop offset="1" stop-color="#fa5600"></stop></linearGradient><linearGradient id="X" x1="465.167" x2="465.167" y1="1289.596" y2="1234.426" gradientUnits="userSpaceOnUse"><stop offset="0" stop-color="#fb7a0d"></stop><stop offset=".194" stop-color="#f97e17"></stop><stop offset=".683" stop-color="#f6882d"></stop><stop offset="1" stop-color="#f58c35"></stop></linearGradient><linearGradient id="Y" x1="525.478" x2="525.478" y1="1193.274" y2="1170.167" gradientUnits="userSpaceOnUse"><stop offset="0" stop-color="#fa5600"></stop><stop offset=".231" stop-color="#fa650d"></stop><stop offset=".716" stop-color="#fa8024"></stop><stop offset="1" stop-color="#fb8b2d"></stop></linearGradient><linearGradient id="Z" x1="557.031" x2="587.991" y1="1028.158" y2="1240.169" xlink:href="#b"></linearGradient><linearGradient id="aa" x1="582.914" x2="663.681" y1="1034.961" y2="1132.385" xlink:href="#l"></linearGradient><linearGradient id="ab" x1="1866.797" x2="1727.188" y1="1010.546" y2="1018.94" xlink:href="#b"></linearGradient><linearGradient id="ac" x1="-4560.624" x2="-4560.624" y1="1147.421" y2="1035.444" gradientTransform="translate(6364.894)" xlink:href="#j"></linearGradient><linearGradient id="ad" x1="-4638.754" x2="-4638.754" y1="1147.421" y2="1035.444" gradientTransform="translate(6364.894)" xlink:href="#j"></linearGradient><linearGradient id="ae" x1="-4933.482" x2="-4933.482" y1="1016.133" y2="1082.561" gradientTransform="translate(6704.075)" gradientUnits="userSpaceOnUse"><stop offset="0" stop-color="#00001b"></stop><stop offset="1" stop-color="#0c2846"></stop></linearGradient><linearGradient id="af" x1="-4643.608" x2="-4634.942" y1="1040.083" y2="1073.749" gradientTransform="translate(6364.894)" xlink:href="#l"></linearGradient><linearGradient id="ag" x1="-4976.606" x2="-4976.606" y1="1038.441" y2="1065.34" gradientTransform="translate(6704.075)" gradientUnits="userSpaceOnUse"><stop offset="0" stop-color="#f9740d"></stop><stop offset="1" stop-color="#fd4200"></stop></linearGradient><linearGradient id="ah" x1="1896.315" x2="1788.315" y1="1097.316" y2="1315.316" xlink:href="#a"></linearGradient><linearGradient id="ai" x1="1907.879" x2="1799.879" y1="1103.044" y2="1321.044" xlink:href="#a"></linearGradient><linearGradient id="aj" x1="2462.79" x2="2556.926" y1="2572.83" y2="2646.644" gradientTransform="rotate(48.287 3523.15 1234.952)" xlink:href="#b"></linearGradient><linearGradient id="ak" x1="2541.379" x2="2636.112" y1="2484.356" y2="2558.638" gradientTransform="rotate(48.287 3523.15 1234.952)" xlink:href="#b"></linearGradient><linearGradient id="al" x1="1892.209" x2="1892.876" y1="981.782" y2="1252.448" xlink:href="#l"></linearGradient><linearGradient id="am" x1="1931.7" x2="1860.7" y1="1022.06" y2="1098.393" xlink:href="#b"></linearGradient><linearGradient id="an" x1="1761.461" x2="1829.376" y1="905.426" y2="935.043" gradientUnits="userSpaceOnUse"><stop offset="0" stop-color="#b00"></stop><stop offset=".208" stop-color="#bd0607"></stop><stop offset=".529" stop-color="#c3171d"></stop><stop offset=".921" stop-color="#ce3441"></stop><stop offset="1" stop-color="#d13b49"></stop></linearGradient><linearGradient id="ao" x1="-5768.39" x2="-5768.87" y1="1167.155" y2="1167.155" gradientTransform="rotate(22.991 -1392.464 19535.922)" gradientUnits="userSpaceOnUse"><stop offset="0" stop-color="#9a9a9a"></stop><stop offset=".156" stop-color="#a1a1a1"></stop><stop offset=".398" stop-color="#b7b7b7"></stop><stop offset=".694" stop-color="#dbdbdb"></stop><stop offset=".948" stop-color="#fff"></stop></linearGradient><linearGradient id="ap" x1="1757.185" x2="1830.079" y1="911.915" y2="940.639" gradientUnits="userSpaceOnUse"><stop offset="0" stop-color="#ac0000"></stop><stop offset=".704" stop-color="#b30000"></stop><stop offset="1" stop-color="#b90000"></stop></linearGradient><linearGradient id="aq" x1="1754.079" x2="1690.25" y1="917.335" y2="891.292" gradientUnits="userSpaceOnUse"><stop offset="0" stop-color="#c81526"></stop><stop offset=".329" stop-color="#c91c2d"></stop><stop offset=".838" stop-color="#cf3241"></stop><stop offset="1" stop-color="#d13b49"></stop></linearGradient><linearGradient id="ar" x1="1649.231" x2="1622.564" y1="313.354" y2="395.354" xlink:href="#l"></linearGradient></defs><g fill="none"><g><g><path fill="#c1c1c1" d="m150.6787,1426.4961158h1848.6416c8.3309917,0,15.0947,6.7637083,15.0947,15.0947v.9785992c0,8.3309917-6.7637083,15.0947-15.0947,15.0947H150.6787c-8.3304398,0-15.0937-6.7632602-15.0937-15.0937v-.9805992c0-8.3304398,6.7632602-15.0937,15.0937-15.0937Z" opacity=".5"></path><g><g><path fill="#0f1b29" d="m1563.5194818,719.3687s30.7519992-8.4156,32.9882992-9.1636c2.4735999-.8252,6.3769998-2.3106,7.0995998,6.1416.711,8.4512,1.0899,11.0976,1.0899,11.0976,0,0-35.8886991.3072-39.765699-.1191-3.8690999-.4326-7.0057998-3.4072-1.4121-7.9565Z"></path><g><path fill="url(#a)" d="m1583.5995813,545.3428c-2.1454999-18.791-10.1425813-32.0982-30.8192992-28.5967-20.6786995,3.5127-28.3681993,15.3476-24.7148994,26.3481,8.3408998,25.1006,10.0644997,24.6968,21.0243995,54.771,5.3915999,14.7896,15.6464996,43.2915,24.6787994,68.4453l19.7059995-3.4897c-1.8154-30.2915-8.0409998-101.4619-9.8749998-117.478Z"></path><path fill="#f4aa74" d="m1593.9765811,674.4258c-.003-2.2886-.1855811-6.3325-.502-11.605l-19.7059995,3.4897c9.3348998,25.9976,17.3641996,48.419,17.3641996,48.419,0,0,2.7138999,1.7383,5.1405999.8154,3.6494999-1.3838,3.5419999-3.6802,3.5419999-3.6802,0,0-5.8075999-22.0004-5.8387999-37.4389Z"></path></g><g><g><path fill="#e59661" d="m1434.4794851,314.603c-.3584-3.2109-2.2694851-13.0312-4.8564851-12.6445-6.1376146.9028-2.0546147,5.8486-5.5253146,12.8896-2.2392999,4.545,8.1874998,12.9527,8.1874998,12.9527,0,0,2.9501999-6.5044,2.1942999-13.1978Z"></path><path fill="#e59661" d="m1521.001,366.1694c-19.3145166-16.373-79.3321151-34.0771-87.2608149-42.958-5.1493999-5.7676-.707-12.5884-13.7811851-19.5683-6.336-3.3828-22.478514,9.229-19.943414,15.9331,5.8046999,15.3374,15.6425996,17.0844,26.8906993,13.2939,6.7977998,1.2993,57.0927147,37.7583,72.0117147,46.8394,6.7342833,4.1035,17.267483,9.5263,21.5214829,5.4829,6.7752998-6.4361,7.7265171-12.9448.5615171-19.023Z"></path></g><g><path fill="#e59661" d="m1524.6708828,348.3413s-14.8661996,21.7188-18.1347995,28.9155c-2.3436999,5.1548,4.8642999,7.6187,9.2626998,9.1978,4.3964999,1.5801,19.3163995-8.4692,28.7460993-20.4907,7.2157998-9.2051-17.8016996-18.5342-19.8739995-17.6226Z"></path><path fill="url(#l)" d="m1580.4765814,281.9966c-20.1826995,15.5263-67.6708983,75.2192-67.6708983,75.2192,0,0,1.4443169,6.9463,11.3807997,16.3306,14.9072996,14.0928,23.8818994,14.3877,23.8818994,14.3877,0,0,35.1756991-30.689,53.9326178-48.604,9.1766806-8.7573,9.2313806-27.8614,5.7606807-44.5659-3.3280999-16.0201-17.6307996-20.1993-27.2850993-12.7676Z"></path></g></g><path fill="url(#m)" d="m1577.7860815,412.6841s-41.9100815,98.3564-49.5204987,118.4096c-7.6083998,20.0562,26.8964993,41.8677,48.1679988,21.504,21.2764185-20.3521,50.2138987-49.0142,61.7831984-74.6553,11.5575997-25.6485,14.3349996-48.169,3.1767999-72.1231-11.1562997-23.9531-52.3447987-19.644-63.6074984,6.8648Z"></path><path fill="#0f1b29" d="m1756.866177,689.9409s14.0321996-28.6284,14.9511996-30.8017c1.0166234-2.4004,2.4852999-6.3106,9.3007998-1.2608,6.8075998,5.0571,9.0438998,6.5254,9.0438998,6.5254,0,0-23.5106994,27.1152-26.3954993,29.7393-2.8847999,2.6186-7.1903998,3.0014-6.9003998-4.2022Z"></path><path fill="#1a1a2e" d="m1633.6874801,408.8921s-19.1991995,117.9414-22.1728994,138.9228c-2.9735806,20.9742,34.5234991,33.0928,50.4550987,8.4078,15.9277996-24.6919,40.243199-48.6656,46.6210988-108.5293,3.6182218-33.9629-69.8182982-66.8365-74.9032981-38.8013Z"></path><path fill="url(#b)" d="m1591.8612811,277.1753c-31.1796992,10.2895-25.9257993,40.1704-23.8007994,65.4077,4.7382999,56.3042-11.5555997,114.9419-11.5555997,114.9419,0,0,57.5663985,29.5552,122.8124969,12.4189,29.6327993-7.7827,32.7538992-18.6137,32.7538992-18.6137,0,0-11.4159997-97.583-51.7763987-161.2832-9.0282998-14.2495-20.8983995-22.5039-47.3661988-18.3374-7.5516806,1.1958-13.3788997,2.9209-21.0673995,5.4658Z"></path><g><path fill="#1a1a2e" d="M1567.4794817 248.1904c-24.8349994-14.3047-18.5126995-53.1181 10.0917997-50.6103 8.5547185.75 5.9999998 13.5 13.5517185 11.1538 22.1738806-6.8892 31.7314803 9.5307 32.2832803 28.7031.3369 11.8765-9.4736998 23.2051-18.2871995 30.1309-3.5506999-3.2329-4.6532999-15.6402-17.2938996-19.3623-12.6415997-3.7276-20.3456995-.0152-20.3456995-.0152zM1580.4901814 283.7373c.5274 10.1763-.9863 33.3198 21.0351995 26.4917 25.8700993-8.0186 24.8817994-37.5996 22.6718994-40.415-5.0224999-6.4048-14.5117996.1938-21.0175995 2.3095-6.5028998 2.1216-23.1357994 2.9859-22.6894994 11.6138z"></path><g><path fill="#f4aa74" d="m1617.1894805,271.0005c-1.292.2163-2.5956999.4599-3.9433999.749-7.4716998,1.6524-13.1903997,3.7315-20.7167995,6.7368-2.3739999.9429-4.5165999,1.9966-6.4462811,3.1504.667,6.5318-1.2461187,25.5659,15.4482809,20.9126,17.1424996-4.7812,17.4618996-25.581,15.6581996-31.5488Z"></path><g><path fill="#f4aa74" d="m1614.583,272.5396c-8.1777192-15.4219-13.374-24.0464-21.3877189-37.7051-.0967-.5445-20.8514995,7.1675-28.3026993-3.0952,0,0,.9804182,14.9487,5.0165999,26.7617,3.8065999,11.1465,8.1425998,16.7768,18.0389995,9.3086.9366,5.6191,4.4833999,11.8208,4.5488999,16.8169.1465,10.0791,6.9413998,12.0986,11.4813997,11.3437,4.5439999-.7646,19.2860995-7.0527,10.6045192-23.4306Z"></path><path fill="#f4aa74" d="m1605.4550808,237.1055c2.0731999,2.455.9297,7.0219-2.5605999,10.2129-3.4842999,3.1811-7.9940998,3.7793-10.0673997,1.3339-2.0702999-2.457-.9277-7.02,2.5644999-10.2128,3.485419-3.1929,7.9931998-3.7813,10.0634997-1.334Z"></path></g></g></g><path fill="#1a1a2e" d="m1665.6874793,533.9663c-12.7440997-13.9756-27.0194793-20.0781-41.7294793-5.1309-14.7031193,14.9566-14.0059193,29.0538-4.6016196,35.8296,21.4599995,15.4615,22.6210994,14.1255,49.1181988,32.084,11.6435997,7.8897,32.8466992,22.3799,52.9608987,36.147l15.0605996-16.7446c-21.5653995-25.8853-60.9491985-71.3804-70.8085982-82.1851Z"></path><path fill="#f4aa74" d="m1776.3534765,659.4468s-17.5917996-14.4312-26.6581993-26.9282c-2.0565999-2.8399-6.8602771-8.7593-13.1991997-16.3672l-15.0605996,16.7446c25.6650994,17.5664,49.5585987,33.9565,49.5585987,33.9565,0,0,3.2167999-.1787,4.6425999-2.3481,2.1484999-3.2603.7168-5.0576.7168-5.0576Z"></path><polygon fill="url(#n)" points="1723.738 636.289 1716.67 632.018 1735.673 611.146 1740.071 618.143 1723.738 636.289"></polygon><polygon fill="url(#o)" points="1574.03 671.198 1570.948 663.537 1595.074 659.033 1594.384 667.268 1574.03 671.198"></polygon></g><g><g><path fill="url(#d)" d="m1736.8212775,1388.1383168c21.6591995,6.4501998,18.3524995,26.8823993,18.3524995,26.8823993,0,0,16.6708996-10.7128997,32.5409992.226,12.1083997,8.3456998,9.6494998,25.3749994-10.0790997,26.8334993h-137.8153965c18.2968995-30.5052992,56.3163986-66.0560983,97.0009975-53.9418986Z"></path><path fill="url(#e)" d="m1718.959,1385.7292168c-33.6611212.7319-63.5537205,30.3675992-79.1387201,56.3509986h43.6747989c26.5810993-8.8256998,40.1289212-33.3675992,35.4639212-56.3509986Z"></path><path fill="url(#f)" d="m1560.2167819,1280.7043195c67.0419983,18.5008995,28.0722993,105.7201973,28.0722993,105.7201973,0,0,38.5429188-63.8583984,93.4599188-36.0805991,36.3163779,18.3695995,35.679678,70.8358982-8.9482209,91.7362977h-221.6923944c-10.2450997-100.0463975,40.296899-180.3632154,109.1083972-161.3758959Z"></path><path fill="url(#g)" d="m1598.906281,1324.6374184c-2.4570999-18.9374995-12.4589997-36.6948991-38.689499-43.9330989-68.8114983-18.9873195-119.353497,61.3294985-109.1083972,161.3758959h82.3974979c33.4598992-36.8846991,54.2567986-79.164498,65.4003983-117.442797Z"></path><g><path fill="url(#c)" d="m1527.1337828,1442.0802154c29.8427992-46.8793988,42.8876989-97.7422154,45.6522988-141.0873964,3.6230999-52.9320987-7.7723998-94.8802976-15.8075996-118.568819-22.6268994,10.8169217-60.2509985,28.9287212-100.354482,49.125-40.2998144,20.6411202-83.081,43.3677196-120.5117124,73.6362189-39.003899,31.5697811-63.1659984,75.0614981-85.2851978,119.209997-2.8700897,5.8998999-5.7049999,11.8099997-8.4842998,17.6849996h284.7909928Z"></path><path fill="#c40000" d="m1531.5810827,1315.4045186c-.3125-1.7593-1.9863999-2.8593999-3.7236999-2.4741999-15.4227996,3.4238999-30.7743827,6.2324998-46.0126988,8.4433998,12.1425997-16.4618996,23.5429994-33.5141992,34.1523991-51.1112987.8965-1.4878.3984-3.4184999-1.1006-4.3120999-1.502-.893-3.4286999-.4218-4.3153999,1.0474-10.5078997,17.4286996-21.7968994,34.3188991-33.8242991,50.6220987-2.4501999-15.1283996-5.423784-29.9882992-8.8993998-44.5488186-.3916-1.6401803-2.0634999-2.7421803-3.7235999-2.4731803-1.6602.2681-2.6845999,1.7993-2.2997844,3.4369999,3.8856843,16.4950996,7.126,33.3735992,9.6815842,50.5917987-15.3173996,20.1943816-31.7753992,39.460999-49.2860988,57.7074985-.9551-29.2661169-3.9569999-57.7826985-8.8495998-85.3168978-.2881-1.6225-1.8594-2.8602999-3.5019999-2.7796999-1.6386.0814809-2.7294999,1.4453-2.4481999,3.0619999,5.1386999,29.4081993,8.1103142,59.9344809,8.7147998,91.2924809-17.7489996,18.0112163-36.5389991,34.9926159-56.2762986,50.853,3.3046999-33.9023837,3.6962999-67.1293828,1.3974-99.290082-.1162-1.6308-1.539-3.0399999-3.1620999-3.1595999-1.624-.1206-2.8388999,1.0883-2.727487,2.7128999,2.272387,33.1390992,1.6600871,67.4090983-2.0645128,102.3719974h13.3280997c18.8984995-15.3573996,36.9345991-31.7255992,54.0087986-49.0502988,31.5117992-.0024,63.8193984-2.3915999,96.6074976-7.3319998,1.8037-.2739168,3.1669999-1.977,3.035117-3.7977999-.1318171-1.8199-1.704117-3.0585999-3.501-2.7802999-30.4961162,4.7113999-60.58,7.1976998-89.998,7.5922998,17.6796849-18.4233995,34.2958844-37.875499,49.761684-58.2646985,17.3407996-2.2748999,34.8339991-5.3178999,52.4257987-9.1556998,1.7451-.3789,2.9179999-2.1279999,2.6015999-3.8871999Zm-231.5820827,97.4540975c-1.6172115-.3511-3.0615114.6855-3.2422114,2.3324999-.9785,8.9193998-2.1786999,17.8861995-3.5975999,26.8890993h6.1522998c1.3008-8.5697998,2.4052999-17.1063996,3.3085999-25.5995994.1778-1.6538-1.0039-3.2679999-2.6210884-3.6219999Z" opacity=".5"></path></g><path fill="url(#h)" d="m1456.624,1231.549c-40.2998144,20.6411202-83.081,43.3677196-120.5117124,73.6357189-39.003899,31.5697992-63.1659984,75.0619981-85.2851978,119.210497-2.8700897,5.8993999-5.7049999,11.8099997-8.4842998,17.6849996h152.3690962c15.2714996-15.3910996,29.0761993-32.9593992,40.651399-52.8446987,33.4697149-56.7201986,46.0829988-117.192897,46.6874988-170.3856957-8.2782998,4.1019999-16.7939996,8.3519998-25.4267839,12.699179Z"></path><g><path fill="url(#p)" d="m1384.7655864,1442.0802154c15.1122996-19.0467995,28.1054993-40.576599,37.879899-64.6215984,31.3026992-75.7059981,29.8456992-152.6297961,15.4550996-212.1302946-14.2597996-60.2006985-41.451199-102.9775974-58.5878985-126.5816224-21.4599995,19.8687251-57.0976865,53.0435243-94.7782976,89.3990233-37.746099,36.9164991-77.532298,77.0140981-108.7548973,123.6615969-32.5243992,48.6405988-44.3983989,105.4271973-53.7694916,162.2382959-1.438507,9.3822998-2.8057069,18.7650995-4.1016069,28.0345993h266.6571933Z"></path><path fill="#c40000" d="m1407.6073858,1273.5763197c-.7763-1.9813999-2.9540999-2.8173999-4.8602999-1.8852-32.3310859,15.7870996-64.9775984,28.9554993-97.6015975,39.5638803,13.3192997-26.6283806,25.1025116-54.0355799,35.2763991-82.0873792,18.5262995-8.5277998,36.9559991-17.9637995,55.2206986-28.3187993,1.8125-1.0249,2.5126999-3.3778999,1.5527-5.2279999-.958-1.8506-3.2011999-2.4970999-5.0028999-1.4683-15.9921996,9.1439998-32.1152992,17.5780996-48.3222988,25.3075994,7.8310998-22.5302994,14.6327996-45.4603989,20.3642995-68.725121.4853-1.9667772-.7363869-3.9452771-2.7157999-4.4213771-1.978587-.476-3.9619999.7159-4.4423999,2.6576999-5.6767999,23.0414994-12.4111871,45.7534988-20.1698995,68.0678983-7.9580998-16.0009996-16.4052876-31.5219992-25.3095994-46.5355988-1.002-1.6924-3.2460999-2.3407999-5.0028999-1.4678-1.7549.873-2.3662999,2.9315999-1.3721,4.6225999,10.0303116,17.0262996,19.4716995,34.7040991,28.2694993,52.9955778-10.0780997,27.7841201-21.7470995,54.9296195-34.9393991,81.3022188-11.1796997-32.2622188-24.3808994-62.9813984-39.345699-91.9545977-.8838-1.707-3.0624999-2.5419999-4.8622999-1.8852-1.7969.6572-2.5400999,2.5536999-1.669,4.2572999,15.8896996,30.9725992,29.7499992,63.9423984,41.263699,98.6552789-13.5429997,26.1933179-28.5956993,51.6005173-45.0946989,76.0854166-8.0400998-38.896999-19.0888995-76.0360981-32.7646992-111.0575972-.6934-1.7764-2.7655999-2.8539999-4.6132999-2.4258195-1.8506.4273195-2.7860999,2.1934195-2.0995999,3.9639194,14.3583996,37.0829991,25.7519993,76.5380806,33.7255991,117.934597-9.5917899,13.8333997-19.6649995,27.3504836-30.1767899,40.550699h9.419c9.2997902-11.8646997,18.24409-23.9857994,26.8163898-36.3495991,41.7216989-7.2782998,83.9950979-18.3700995,126.2196968-33.4423992,2.0185999-.7177,3.2255999-2.9974999,2.6874999-5.0712172-.5332-2.0742826-2.6073999-3.1533826-4.6132999-2.4257826-39.607399,14.2992996-79.268498,25.0687826-118.4862867,32.4432992,16.6562892-24.7220994,31.8573888-50.3735165,45.5302885-76.8197981,35.0917991-10.8959997,70.2450982-24.7235994,105.0517115-41.560499,1.9150858-.9268,2.8447858-3.2958999,2.0673858-5.2778999Zm-234.6268941,110.6254972c-1.9219.167-3.1718999,1.8213-2.8046999,3.7172999,3.4345999,17.6918832,6.1903998,35.7616991,8.2382998,54.1610986h7.2294998c-2.1230999-18.6048995-4.9609999-36.8719991-8.4921998-54.7523986-.3741-1.9014-2.2470999-3.2914999-4.1708999-3.1259999Z" opacity=".3"></path></g></g><g><path fill="url(#q)" d="m424.1387,1388.1383168c-21.6592,6.4501998-18.3525,26.8823993-18.3525,26.8823993,0,0-16.6709-10.7128997-32.541.226-12.1084,8.3456998-9.6495,25.3749994,10.0791,26.8334993h137.8154c-18.2969-30.5052992-56.3164-66.0560983-97.001-53.9418986Z"></path><path fill="url(#r)" d="m442.001,1385.7292168c33.6611.7319,63.5537,30.3675992,79.1387,56.3509986h-43.6748c-26.5811-8.8256998-40.1289-33.3675992-35.4639-56.3509986Z"></path><path fill="url(#s)" d="m600.7432,1280.7043195c-67.042,18.5008995-28.0723,105.7201973-28.0723,105.7201973,0,0-38.5429-63.8583984-93.4599-36.0805991-36.3164,18.3695995-35.6797,70.8358982,8.9482,91.7362977h221.6924c10.2451-100.0463975-40.2969-180.3632154-109.1084-161.3758959Z"></path><path fill="url(#t)" d="m562.0537,1324.6374184c2.4571-18.9374995,12.459-36.6948991,38.6895-43.9330989,68.8115-18.9873195,119.3535,61.3294985,109.1084,161.3758959h-82.3975c-33.4599-36.8846991-54.2568-79.164498-65.4004-117.442797Z"></path><g><path fill="url(#u)" d="m633.8262,1442.0802154c-29.8428-46.8793988-42.8877-97.7422154-45.6523-141.0873964-3.6231-52.9320987,7.7724-94.8802976,15.8076-118.568819,22.6269,10.8169217,60.251,28.9287212,100.3545,49.125,40.2998,20.6411202,83.081,43.3677196,120.5117,73.6362189,39.0039,31.5697811,63.166,75.0614981,85.2852,119.209997,2.8701,5.8998999,5.705,11.8099997,8.4843,17.6849996h-284.791Z"></path><path fill="#c40000" d="m631.9805,1319.2917185c17.5918,3.8377999,35.085,6.8807998,52.4258,9.1556998,15.4658,20.3891995,32.082,39.841299,49.7617,58.2646985-29.418-.3946-59.5019-2.8808999-89.998-7.5922998-1.7969-.2783-3.3692.9604-3.501,2.7802999-.1319,1.8208,1.2314,3.5238831,3.0351,3.7977999,32.7881,4.9403999,65.0957,7.3295998,96.6075,7.3319998,17.0742,17.3246996,35.1103,33.6928991,54.0088,49.0502988h13.3281c-3.7246-34.9628991-4.3369-69.2328983-2.0645-102.3719974.1114-1.6246-1.1035-2.8334999-2.7275-2.7128999-1.6231.1196-3.0459,1.5288-3.1621,3.1595999-2.2989,32.1606992-1.9073,65.3876983,1.3974,99.290082-19.7373-15.8603841-38.5273-32.8417837-56.2763-50.853.6045-31.358,3.5761-61.8842817,8.7148-91.2924809.2813-1.6167-.8096-2.9805191-2.4482-3.0619999-1.6426-.0806-3.2139,1.1572-3.502,2.7796999-4.8926,27.5341993-7.8945,56.0507809-8.8496,85.3168978-17.5107-18.2464995-33.9687-37.5131169-49.2861-57.7074985,2.5556-17.2181996,5.7959-34.0966991,9.6816-50.5917987.3848-1.6377-.6396-3.1688999-2.2998-3.4369999-1.6601-.269-3.332.833-3.7236,2.4731803-3.4756,14.5605193-6.4492,29.4204189-8.8994,44.5488186-12.0274-16.3031996-23.3164-33.1933992-33.8243-50.6220987-.8867-1.4692-2.8134-1.9404-4.3154-1.0474-1.499.8936-1.9971,2.8242999-1.1006,4.3120999,10.6094,17.5970996,22.0098,34.6493991,34.1524,51.1112987-15.2383-2.2108999-30.5899-5.0194999-46.0127-8.4433998-1.7373-.3852-3.4112.7149-3.7237,2.4741999-.3164,1.7592.8565,3.5082999,2.6016,3.8871999Zm226.3594,97.1888975c.9033,8.4931998,2.0078,17.0297996,3.3086,25.5995994h6.1523c-1.4189-9.0028998-2.6191-17.9696995-3.5976-26.8890993-.1807-1.647-1.625-2.6835999-3.2422-2.3324999-1.6172.354-2.7989,1.9682-2.6211,3.6219999Z" opacity=".5"></path></g><path fill="url(#v)" d="m704.336,1231.549c40.2998,20.6411202,83.081,43.3677196,120.5117,73.6357189,39.0039,31.5697992,63.166,75.0619981,85.2852,119.210497,2.8701,5.8993999,5.705,11.8099997,8.4843,17.6849996h-152.3691c-15.2715-15.3910996-29.0762-32.9593992-40.6514-52.8446987-33.4697-56.7201986-46.083-117.192897-46.6875-170.3856957,8.2783,4.1019999,16.794,8.3519998,25.4268,12.699179Z"></path><g><path fill="url(#w)" d="m776.1944,1442.0802154c-15.1123-19.0467995-28.1055-40.576599-37.8799-64.6215984-31.3027-75.7059981-29.8457-152.6297961-15.4551-212.1302946,14.2598-60.2006985,41.4512-102.9775974,58.5879-126.5816224,21.46,19.8687251,57.09769,53.0435243,94.7783,89.3990233,37.7461,36.9164991,77.5322973,77.0140981,108.7548965,123.6615969,32.5243992,48.6405988,44.3983989,105.4271973,53.7695035,162.2382959,1.4384951,9.3822998,2.805695,18.7650995,4.101595,28.0345993h-266.657195Z"></path><path fill="#c40000" d="m755.42,1278.8542195c34.8066,16.8368996,69.9599,30.6644992,105.0517,41.560499,13.6729,26.4462815,28.874,52.0976987,45.5303,76.8197981-39.2178-7.3745165-78.8789-18.1439995-118.4863-32.4432992-2.0059-.7276-4.0801.3515-4.6133,2.4257826-.5381,2.0737172.6689,4.3535172,2.6875,5.0712172,42.2246,15.0722996,84.498,26.1640993,126.2197,33.4423992,8.5723,12.3637997,17.5166,24.4848994,26.8164,36.3495991h9.419c-10.5118-13.2002154-20.585-26.7172993-30.1768-40.550699,7.9736-41.3965164,19.3672-80.851598,33.7255973-117.934597.6865-1.7705-.249-3.5365999-2.0995999-3.9639194-1.8477-.4281805-3.9198999.6494195-4.6132974,2.4258195-13.6758,35.0214991-24.7246,72.1605982-32.7647,111.0575972-16.499-24.4848994-31.5517-49.8920987-45.0947-76.0854166,11.5137-34.7128806,25.374-67.6826797,41.2637-98.6552789.8711-1.7036.1279-3.6000999-1.669-4.2572999-1.7998-.6568-3.9785.1782-4.8623,1.8852-14.9648,28.9731993-28.166,59.6923789-39.3457,91.9545977-13.1923-26.3725993-24.8613-53.5180986-34.9394-81.3022188,8.7978-18.2914787,18.239188-35.9692782,28.2695-52.9955778.9942-1.691.3828-3.7495999-1.3721-4.6225999-1.7568-.873-4.0009-.2246-5.0029,1.4678-8.90431,15.0135996-17.3515,30.5345992-25.3096,46.5355988-7.7587-22.3143994-14.4931-45.0263989-20.1699-68.0678983-.4804-1.9418-2.4638-3.1336999-4.4424-2.6576999-1.9794.4761-3.2011,2.4545999-2.7158,4.4213771,5.7315,23.2647222,12.5332,46.1948216,20.3643,68.725121-16.207-7.7294998-32.3301-16.1635996-48.3223-25.3075994-1.8017-1.0288-4.0449-.3823-5.0029,1.4683-.96,1.8501-.2598,4.2030999,1.5527,5.2279999,18.2647,10.3549997,36.6944,19.7909995,55.2207,28.3187993,10.1739,28.0517993,21.9571,55.4589986,35.2764,82.0873792-32.624-10.608381-65.2705-23.7767807-97.6016-39.5638803-1.9062-.9322-4.084-.0962-4.8603,1.8852-.7774,1.9819999.1523,4.3510999,2.0674,5.2778999Zm228.3885965,108.4735973c-3.5311999,17.8803995-6.3690998,36.1474991-8.4921998,54.7523986h7.2294998c2.0478999-18.3993995,4.8036999-36.4692154,8.2382998-54.1610986.3672-1.896-.8828-3.5502999-2.8046999-3.7172999-1.9238-.1655-3.7967999,1.2246-4.1708999,3.1259999Z" opacity=".3"></path></g></g><g><path fill="#fcb63a" d="m1164.5145919,358.175c2.1474999,0,4.1660999-.836,5.6865999-2.355,8.3133998-8.2373,19.3251995-12.7686,31.0145992-12.7686,24.2919994,0,44.0546989,19.7637,44.0546989,44.0552,0,24.2925-19.7626995,44.0547-44.0546989,44.0547-11.6893997,0-22.7011994-4.5303-31.005791-12.7568-1.5293082-1.5289-3.5479081-2.3663-5.6954081-2.3663-4.4334999,0-8.0409998,3.6075-8.0409998,8.0415v140.4888h139.1524079c7.8397884,0,14.2186883,6.3789,14.2186883,14.2197,0,3.7984-1.4785,7.3697-4.1639999,10.0557-7.0624998,7.1284-10.9579997,16.5952-10.9579997,26.646,0,20.8848,16.9911996,37.875,37.875899,37.875,20.8847995,0,37.875999-16.9902,37.875999-37.875,0-10.0508-3.8954999-19.5176-10.9686997-26.6567-2.6767999-2.6753-4.1552999-6.2466-4.1552999-10.045,0-7.8408,6.3798998-14.2197,14.2206996-14.2197l143.5585964.001c-1.6856-196.5962-160.261696-355.6089-356.656291-357.9829v143.5469c0,4.4345,3.6074999,8.0415,8.0409998,8.0415Z"></path><path fill="url(#x)" d="m1287.4442888,249.5158c41.016599,17.4756,77.843798,42.4243,109.4570972,74.1518,31.6190992,31.7329,56.4383986,68.6577,73.7674981,109.7476,17.5322996,41.5708,26.6113993,85.6797,27.0136993,131.1543h15.4472996c-1.6856-196.5962-160.261696-355.6089-356.656291-357.9829v15.4472c45.4335989.5694,89.4824977,9.8057,130.9706967,27.482Z"></path><path fill="url(#y)" d="m1164.5145919,358.175c2.1474999,0,4.1660999-.836,5.6865999-2.355,8.3133998-8.2373,19.3251995-12.7686,31.0145992-12.7686,24.2919994,0,44.0546989,19.7637,44.0546989,44.0552,0,24.2925-19.7626995,44.0547-44.0546989,44.0547-11.6893997,0-22.7011994-4.5303-31.005791-12.7568-1.5293082-1.5289-3.5479081-2.3663-5.6954081-2.3663-4.4334999,0-8.0409998,3.6075-8.0409998,8.0415v140.4888h139.1524079c7.8397884,0,14.2186883,6.3789,14.2186883,14.2197,0,3.7984-1.4785,7.3697-4.1639999,10.0557-7.0624998,7.1284-10.9579997,16.5952-10.9579997,26.646,0,20.8848,16.9911996,37.875,37.875899,37.875,20.8847995,0,37.875999-16.9902,37.875999-37.875,0-10.0508-3.8954999-19.5176-10.9686997-26.6567-2.6767999-2.6753-4.1552999-6.2466-4.1552999-10.045,0-7.8408,6.3798998-14.2197,14.2206996-14.2197l128.1112968.001c-.4023-45.4746-9.4813998-89.5835-27.0136993-131.1543-17.3290996-41.0899-42.1483989-78.0147-73.7674981-109.7476-31.6132992-31.7275-68.4404983-56.6762-109.4570972-74.1518-41.488199-17.6763-85.5370978-26.9126-130.9706967-27.482v128.0997c0,4.4345,3.6074999,8.0415,8.0409998,8.0415Z"></path><path fill="url(#z)" d="m1455.7890846,500.2272c-6.7958998,0-13.0253997-4.521-14.8964996-11.3945-.7813-2.8692-1.6172-5.7661-2.4853999-8.6094-2.490185-8.1602,2.1044999-16.7949,10.2656997-19.2852,8.1581998-2.4902,16.7928996,2.1045,19.2851153,10.2652.959,3.1421,1.8827842,6.3437,2.7460842,9.5151,2.2411999,8.2324-2.6161999,16.7227-10.8495997,18.9629-1.3564845.3701-2.7226999.5459-4.0653999.5459Zm-20.6845995-55.0117c-5.7235999,0-11.2226997-3.1944-13.8983996-8.6846-10.7187997-21.9971-24.1562994-42.6528-39.938499-61.3945-5.4960999-6.5259-4.6611999-16.2715,1.8642-21.7671s16.2724996-4.6607,21.7675995,1.8652c17.4179996,20.6851,32.2489992,43.4829,44.0800989,67.7622,3.7382999,7.67.5498,16.917-7.1190998,20.6538-2.1787999,1.0616-4.4853849,1.565-6.7558998,1.565Zm-76.6630981-99.7857c-3.5966999,0-7.2099998-1.249-10.1366997-3.7963-23.6025994-20.5489-50.1903987-37.1963-79.026398-49.4825-11.8202893-5.0361-24.0497994-9.3359-36.3466991-12.7802-8.2167998-2.3003-13.0106997-10.8262-10.7098997-19.0415,2.3007999-8.2154,10.8280997-13.0098,19.0409995-10.709,13.5800997,3.8032,27.0800993,8.5498,40.125999,14.1069,31.8173992,13.5562,61.1571985,31.9277,87.2040978,54.6035,6.4335998,5.603,7.1083998,15.3599,1.5068,21.7954-3.0546999,3.5083-7.3436998,5.3037-11.6581997,5.3037Z"></path><path fill="#fa7000" d="m1296.665,622.026c-.456,0-.9082114.0147-1.3603114.0347,3.1220999,17.7617,18.6503995,31.3042,37.2938991,31.3042,18.6542995,0,34.1914123-13.5601,37.2988991-31.3384l-73.2324867-.0005Zm-126.455-203.6215c-1.5293082-1.5289-3.5479081-2.3663-5.6954081-2.3663-4.4334999,0-8.0409998,3.6075-8.0409998,8.0415v88.335c18.6425995-10.0591,31.3398992-29.7754,31.3398992-52.4028,0-14.7368-5.3886999-28.2378-14.2939996-38.6411-1.1434917-.9288-2.2489999-1.917-3.3094917-2.9663Z" opacity=".3"></path></g><path fill="#fcb63a" d="m1440.223585,637.4738h-143.558585c-7.8398112,0-14.2187111,6.3789-14.2187111,14.2192,0,3.7989,1.4785,7.3697,4.1542999,10.0454,7.0731998,7.1392,10.9677997,16.6055,10.9677997,26.6563,0,20.8843-16.9912996,37.876-37.875999,37.876-20.8837995,0-37.875999-16.9917-37.875999-37.876,0-10.0508,3.8954999-19.5171,10.9579997-26.646,2.6864999-2.686,4.1659999-6.2568,4.1659999-10.0557,0-7.8403-6.3798998-14.2192-14.2206996-14.2192h-139.1503965v-140.4888c0-4.4341,3.6054999-8.041,8.0400998-8.041,2.1473999,0,4.1669999.8364,5.6952999,2.3657,8.3046998,8.2261,19.3153995,12.7573,31.0057992,12.7573,24.2919994,0,44.0546989-19.7631,44.0546989-44.0551s-19.7626995-44.0547-44.0546989-44.0547c-11.6903997,0-22.7010994,4.5307-31.0155992,12.7676-1.5185,1.519-3.5380999,2.3554-5.6854999,2.3554-4.4345999,0-8.0400998-3.6074-8.0400998-8.041v-143.5478c-1.0302-.0122-2.0585999-.0269-3.0897999-.0308-1.0303.0039-2.0605999.0186-3.0898999.0308-197.4452941,2.3881-356.6737941,163.0947-356.6737941,361.144,0,231.6265,197.3047,332.874,197.3047,424.8814249v69.4354982h324.9208899v-69.4354982c0-91.6065249,195.5761951-192.3775249,197.282195-421.8633249.0078-1.0059.0205-2.0083.0205-3.0181,0-1.0552-.0107-2.1079-.0205-3.1616Z"></path><g><path fill="url(#i)" d="m1077.3895941,279.4914c-197.4452941,2.3881-356.6737941,163.0947-356.6737941,361.144,0,231.6265,197.3047,332.874,197.3047,424.8814249v69.4354982h15.4473v-69.4354982c0-40.9786249-30.4668-79.1553249-69.0391-127.4888249-57.1465-71.606-128.2646-160.7217-128.2646-297.3926,0-46.5908,9.0947-91.7812,27.0332-134.3144,17.3281-41.0904,42.1474-78.0147,73.76657-109.7486,31.61423-31.7275,68.44143-56.6753,109.4590274-74.1513,41.485299-17.6753,85.5341026-26.9122,130.9666967-27.482,1.0293-.0127,2.0595999-.0268,3.0898999-.0312,1.0312.0044,2.0595999.0185,3.0897999.0312v-15.4477c-1.0302-.0122-2.0585999-.0269-3.0897999-.0308-1.0303.0039-2.0605999.0186-3.0898999.0308Z"></path><path fill="url(#A)" d="m1440.223585,637.4738h-15.4471996c.0097,1.0537.0195,2.1074.0195,3.1616,0,1.0117-.0176,2.0117-.0234,3.0181-1.0411,134.9619-71.5175982,223.2983-128.2392968,294.3745-38.5731886,48.3335-69.0399983,86.5102-69.0399983,127.4888249v69.4354982h15.4481996v-69.4354982c0-91.6065249,195.5761951-192.3775249,197.282195-421.8633249.0078-1.0059.0205-2.0083.0205-3.0181,0-1.0552-.0107-2.1079-.0205-3.1616Z"></path></g><path fill="url(#B)" d="m1424.7763854,637.4738h-128.1113854c-7.8398112,0-14.2187111,6.3789-14.2187111,14.2192,0,3.7989,1.4785,7.3697,4.1542999,10.0454,7.0731998,7.1392,10.9677997,16.6055,10.9677997,26.6563,0,20.8843-16.9912996,37.876-37.875999,37.876-20.8837995,0-37.875999-16.9917-37.875999-37.876,0-10.0508,3.8954999-19.5171,10.9579997-26.646,2.6864999-2.686,4.1659999-6.2568,4.1659999-10.0557,0-7.8403-6.3798998-14.2192-14.2206996-14.2192h-139.1503965v-140.4888c0-4.4341,3.6054999-8.041,8.0400998-8.041,2.1473999,0,4.1669999.8364,5.6952999,2.3657,8.3046998,8.2261,19.3153995,12.7573,31.0057992,12.7573,24.2919994,0,44.0546989-19.7631,44.0546989-44.0551s-19.7626995-44.0547-44.0546989-44.0547c-11.6903997,0-22.7010994,4.5307-31.0155992,12.7676-1.5185,1.519-3.5380999,2.3554-5.6854999,2.3554-4.4345999,0-8.0400998-3.6074-8.0400998-8.041v-128.1001c-1.0302-.0127-2.0585999-.0268-3.0897999-.0312-1.0303.0044-2.0605999.0185-3.0898999.0312-45.4325941.5698-89.4813977,9.8067-130.9666967,27.482-41.0175974,17.476-77.8447974,42.4238-109.4590274,74.1513-31.61917,31.7339-56.43847,68.6582-73.76657,109.7486-17.9385,42.5332-27.0332,87.7236-27.0332,134.3144,0,136.6709,71.1181,225.7866,128.2646,297.3926,38.5723,48.3335,69.0391,86.5102,69.0391,127.4888249v69.4354982h294.0253903v-69.4354982c0-40.9786249,30.4668097-79.1553249,69.0399983-127.4888249,56.7216986-71.0762,127.1981968-159.4126,128.2392968-294.3745.0058-1.0064.0234-2.0064.0234-3.0181,0-1.0542-.0098-2.1079-.0195-3.1616Z"></path><g><path fill="url(#j)" d="m1080.4794941,1400.1134165h-103.2694941l3.0624966,18.1938995c2.2128999,13.345684,15.0663996,23.7728994,28.6045034,23.7728994h143.207c13.5370919,0,26.3876916-10.4272154,28.6034915-23.7728994l3.0625085-18.1938995h-103.2705059Z"></path><path fill="url(#C)" d="m910.1078996,1134.9523232h340.7465897c8.7433274,0,15.8418,7.0984726,15.8418,15.8418v4.2577991c0,8.7433274-7.0984726,15.8418-15.8418,15.8418h-340.7460897c-8.744431,0-15.8437996-7.0993686-15.8437996-15.8437996v-4.2542999c0-8.7441551,7.0991445-15.8432996,15.8432996-15.8432996Z"></path><g><path fill="url(#D)" d="m912.0225,1170.8937223l30.3418,207.0575948c1.8212,12.3549997,14.0653972,22.1620994,27.2752969,22.1620994h221.6621944c13.1659997,0,25.4823994-9.8070998,27.2812087-22.1620994l30.3534898-207.0575948h-336.9139898Z"></path><polygon fill="url(#E)" points="1227.728 1315.565 1248.936 1170.894 912.023 1170.894 933.223 1315.565 1227.728 1315.565"></polygon></g><path fill="url(#F)" d="m924.8711,1258.57492l141.5380944,141.5384964h33.0995992l-180.3212936-180.3216954,5.6836,38.783199Zm61.8251964-87.6811978l222.6522944,222.6513944c4.8740999-3.9872999,8.3437998-9.4771166,9.2344092-15.5937996l1.0575905-7.2128998-199.844695-199.844695h-33.0995992Zm-48.9901964,175.2680956l53.9510963,53.9515986h33.0986992l-92.7333955-92.7338977,5.6836,38.782299Zm-25.6836-175.2680956l.0136.0932777,229.1269925,229.1264165h33.0985992l-229.2186917-229.2196942h-33.0205Zm149.4276945,0l163.5155959,163.5155959,4.2323999-28.8671993-134.6483966-134.6483966h-33.0995992Zm182.6073954,0h-33.0995899l33.124,33.1230992,4.2314898-28.8671993-4.2558999-4.2558999Zm-107.8544973,0l98.3202975,98.3197975,4.2324999-28.8675993-69.4521982-69.4521982h-33.1005992Z"></path></g><path fill="#02101c" d="m977.21,1400.1134165l3.0624966,18.1938995c2.2128999,13.345684,15.0663996,23.7728994,28.6045034,23.7728994h41.3465948c-5.7206999,0-11.1512997-10.4272154-12.0878997-23.7728994l-1.2939-18.1938995h-59.6317952Z"></path><path fill="url(#G)" d="m1162.235392,777.5915c-34.2285991,0-62.0751984,27.8466-62.0751984,62.0747v47.3149h-39.360399v-47.3149c0-34.2281-27.8466993-62.0747-62.0741984-62.0747-34.2284991,0-62.0741961,27.8466-62.0741961,62.0747,0,34.2275,27.845697,62.0737,62.0741961,62.0737h47.3164039v233.2124232h14.7577945v-233.2124232h39.360399v233.2124232h14.7586996v-233.2124232h47.3164988c34.2264991,0,62.0741984-27.8462,62.0741984-62.0737,0-34.2281-27.8476993-62.0747-62.0741984-62.0747Zm-136.3906966,109.3896h-27.1190993c-26.0907993,0-47.3153988-21.2256-47.3153988-47.3149,0-26.0904,21.2245995-47.3159,47.3153988-47.3159,26.0888993,0,47.3164039,21.2255,47.3164039,47.3159v47.3149h-20.1973046Zm136.3906966,0h-47.3164988v-47.3149c0-26.0904,21.2246995-47.3159,47.3164988-47.3159,26.0887993,0,47.3153988,21.2255,47.3153988,47.3159,0,26.0893-21.2265995,47.3149-47.3153988,47.3149Z"></path><path fill="url(#k)" d="m1080.4794941,279.4606c-1.0303.0039-2.0605999.0186-3.0898999.0308v143.5478c0,7.8408,6.3789998,14.2202,14.2197996,14.2202,3.7977999,0,7.3680998-1.479,10.0438997-4.1548,7.1397065-7.0732,16.6073996-10.9682,26.6571993-10.9682,20.8837995,0,37.875999,16.9912,37.875999,37.8755,0,20.8847-16.9921996,37.8755-37.875999,37.8755-10.0497997,0-19.5174928-3.8946-26.6463993-10.9576-2.6865999-2.686-6.2568998-4.1655-10.0546997-4.1655-7.8407998,0-14.2197996,6.3794-14.2197996,14.2207v143.5777h6.1796998v-143.5777c0-4.4341,3.6054999-8.041,8.0400998-8.041,2.1473999,0,4.1669999.8364,5.6952999,2.3657,8.3046998,8.2261,19.3153995,12.7573,31.0057992,12.7573,24.2919994,0,44.0546989-19.7631,44.0546989-44.0551s-19.7626995-44.0547-44.0546989-44.0547c-11.6903997,0-22.7010994,4.5307-31.0155992,12.7676-1.5185,1.519-3.5380999,2.3554-5.6854999,2.3554-4.4345999,0-8.0400998-3.6074-8.0400998-8.041v-143.5478c-1.0302-.0122-2.0585999-.0269-3.0897999-.0308Z"></path><path fill="url(#H)" d="m930.1982,629.4342c0-2.1474.837-4.167,2.3663-5.6967,8.2255-8.3042,12.7557975-19.3155,12.7557975-31.0049,0-24.2925-19.7616975-44.0552-44.0536975-44.0552s-44.0547,19.7627-44.0547,44.0552c0,11.6899,4.5303,22.7011,12.7686,31.0156,1.5185,1.5181,2.3545,3.5381,2.3545,5.686,0,4.4327-3.6075,8.0396-8.042,8.0396h-143.5567c-.0088,1.0537-.0205,2.1064-.0205,3.1616,0,1.0098.0137,2.0122.0205,3.0176h143.5567c7.8418,0,14.2207-6.3784,14.2207-14.2188,0-3.7993-1.4795-7.3696-4.1543-10.0454-7.0742-7.1396-10.9678-16.6059-10.9678-26.6562,0-20.8853,16.9912-37.876,37.875-37.876,20.8848,0,37.875,16.9907,37.875,37.876,0,10.0498-3.8936,19.5166-10.957,26.646-2.6866,2.687-4.166,6.2578-4.166,10.0556,0,7.8404,6.3798,14.2188,14.2216,14.2188h143.577194v-6.1792h-143.577194c-4.4345,0-8.042-3.6069-8.042-8.0396Z"></path><path fill="url(#I)" d="m1282.4462889,651.693c0,3.7989,1.4785,7.3697,4.1542999,10.0454,7.0731998,7.1392,10.9677997,16.6055,10.9677997,26.6563,0,20.8843-16.9912996,37.876-37.875999,37.876-20.8837995,0-37.875999-16.9917-37.875999-37.876,0-10.0508,3.8954999-19.5171,10.9579997-26.646,2.6864999-2.686,4.1659999-6.2568,4.1659999-10.0557,0-7.8403-6.3798998-14.2192-14.2206996-14.2192h-143.5780964v6.1792h143.5780964c4.4345999,0,8.0409998,3.6069,8.0409998,8.04,0,2.148-.8359,4.1675-2.3651999,5.6963-8.2265998,8.3047-12.7577997,19.3159-12.7577997,31.0054,0,24.292,19.7626995,44.0552,44.0546989,44.0552s44.0556105-19.7632,44.0556105-44.0552c0-11.6895-4.5312115-22.7007-12.7685113-31.0152-1.5194887-1.519-2.3544887-3.5385-2.3544887-5.6865,0-4.4331,3.6063887-8.04,8.04-8.04l143.558585.0005c.0078-1.0054.0205-2.0074.0205-3.0181,0-1.0552-.0107-2.1079-.0205-3.1616h-143.558585c-7.8398112,0-14.2187111,6.3789-14.2187111,14.2192Z"></path><rect width="6.18" height="222.048" x="1077.391" y="639.778" fill="url(#J)"></rect><path fill="url(#K)" d="m836.96387,396.5724c-31.61917,31.7339-56.43847,68.6582-73.76657,109.7486-17.9385,42.5332-27.0332,87.7236-27.0332,134.3144,0,136.6709,71.1181,225.7866,128.2646,297.3926,38.5723,48.3335,69.0391,86.5102,69.0391,127.4888249v69.4354982h79.7089958v-69.4354982c0-40.9786249-13.9482996-79.1553249-31.6074992-127.4888249-26.1610993-71.606-58.7196965-160.7217-58.7196965-297.3926,0-46.5908,4.1631-91.7812,12.375-134.3144,7.9346-41.0904,19.2958972-78.0147,33.7724969-109.7486,14.4725996-31.7275,31.3319992-56.6753,50.1092987-74.1513,19.4248995-18.0757,40.074299-27.3326,61.3730984-27.5132-46.5243988.1806-91.6298977,9.4375-134.0565966,27.5132-41.0175974,17.476-77.8447974,42.4238-109.4590274,74.1513Z"></path><path fill="url(#L)" d="m1022.1161955,1377.951317l-3.0663999-49.5551987-1.3017956-21.0165995v.0004812l-3.0224043-48.80508-2.4013999-38.783199.001.0009-3.0224999-48.805621-.0068-.0932777h-97.2733958l.0136.0932777,7.1524,48.805621-.001-.0009,5.6836,38.783199,7.1514,48.80508v-.0004812l3.08,21.0165995,7.2618,49.5551987c1.8212,12.3549997,14.0653972,22.1620994,27.2752969,22.1620994h64.0029984c-5.5810999,0-10.7558997-9.8070998-11.5263997-22.1620994Z"></path></g><g><g><path fill="#f4aa74" d="m494.7236,1049.1895c.9532-3.2315,4.7188-12.9883,7.2852-12.2217,6.0801,1.8115,1.0117,6.2773,3.2422,13.9756,1.4394,4.9716-10.7324,12.053725-10.7324,12.053725,0,0-1.8008-7.0761998.205-13.807625Z"></path><path fill="#f4aa74" d="m397.0947,1089.3604243c22.6934-13.9355996,87.0782-23.3359994,96.791-31.2656992,6.3106-5.1483999,3.0469-12.7627251,17.6485-18.0039251,7.0762-2.54,21.1875,12.6924252,17.3633,19.1748251-8.7403,14.8359996-19.084,15.1962996-29.836,9.6923749-7.1621.3418248-65.1133,30.3223241-81.9824,37.4453239-7.6172,3.2187999-19.3457,7.2314998-22.9297,2.4843999-5.709-7.5605998-5.4785-14.3534996,2.9453-19.5272995Z"></path></g><g><path fill="#0f1b29" d="m344.4443,1431.9824157s-32.5254-8.3632998-34.8945-9.1112998c-2.6211-.8242-6.7617-2.3124999-7.2617,6.2929998-.4922,8.5995998-.8067,11.2948843-.8067,11.2948843,0,0,37.6661.084,41.7207-.3730845,4.0469-.4648,7.25-3.5096999,1.2422-8.1034998Z"></path><path fill="url(#M)" d="m364.3193,1127.0107234s-1.2675,96.0537976-2.7265,117.930697c-1.459,21.8798994-43.6055,26.0839993-54.9629-2.3358999-11.3731-28.4081993-26.4141-67.9501983-26.2949-96.7646976.1347-28.8173993,7.2402-50.7421987,28.1757-67.6044983,20.9375-16.8603246,56.5957,19.3036754,55.8086,48.7743988Z"></path><g><path fill="#f4aa74" d="m305.9248,1330.9404182c.8926,25.0556994,1.9199,47.9638988,2.7363,54.9130986,1.834,15.7089996-1.5468,38.598599-1.5468,38.598599,0,0,.1679,2.3457999,4.125,3.4365999,2.6328.7295,5.2402-1.2754,5.2402-1.2754,0,0,12.6855-52.9120987,22.1523-92.0321977l-32.707-3.6406999Z"></path><path fill="url(#N)" d="m346.0576,1304.0586189c7.7598-31.5526992,9.5996-31.2909992,15.2363-57.5526985,2.4649-11.5107997-6.9511-22.8857994-28.8613-24.6621994-21.9043-1.7656-28.6055,12.4667997-28.5683,31.7724992.0195,10.7714997-1.2344,47.6913988-.1094,79.261698l35.9453,4.0009999c2.9492-12.1815997,4.5156-25.3280994,6.3574-32.8202992Z"></path><path fill="url(#O)" d="m341.4424,1340.431618c-.0977.542-.625.984382-1.1758.985382l-36.1016.019518c-.5507.001-1.1269-.4336-1.2793-.9609l-1.9296-6.6610998c-.1524-.5293.1738-.96.7226-.961l40.1055-.0215182c.5488,0,.9219.4434182.8262.9834181l-1.168,6.6161998Z"></path></g></g><g><path fill="#f4aa74" d="m220.1045,1333.9082181c-1.5469,23.0429994-2.8731,46.4354988-2.6621,54.6093986.3945,15.4803832-4.5723,35.9764991-4.5723,35.9764991,0,0,.0586,2.4550999,3.6875,3.8964999,3.7207,1.4805,4.6738.2891,4.6738.2891,0,0,18.6133-48.2617157,36.0782-94.7714976h-37.2051Z"></path><path fill="#101b29" d="m227.6689,1429.3086157c-.0527-.8399-.1523-1.5547-.2714-2.2030999-1.0762-5.9042999-4.5782-4.6485158-6.8848-3.9023999-.4258.1387-1.8418.5391-3.8691,1.0878841-2.0332-.5311841-3.4512-.9198841-3.8809-1.0546841-2.3086-.7285-5.8223-1.9551-6.8496,3.9550999-.1152.6504-.211,1.3652-.2598,2.2069999-.4765,8.4238998-.7851,11.0644997-.7851,11.0644997,0,0,5.164.0078,11.8398-.0039154,6.6738-.041,11.8438-.0937845,11.8438-.0937845,0,0-.3321-2.6346999-.8829-11.0565997Z"></path><path fill="#1a1a2e" d="m309.1709,1118.4482236s-20.7305,119.307697-24.8555,140.3818965c-4.1289,21.0682995-45.584,19.9403995-53.1191-9.0702998-5.8887-22.7099994-20.3262-80.252998-15.0078-111.8320972,2.1426-12.7215997,3.5625-24.2489994,7.0859-37.704999,8.7754-33.4912992,90.3067-10.3115997,85.8965,18.2254995Z"></path><path fill="#1a1a2e" d="m283.333,1262.02542c1.1328-3.6562999-6.9375-27.6991993-28.1445-31.3671992-21.209-3.6698999-29.6621,34.5272991-31.3457,53.3632987-.793,8.9003998-3.3438,30.2538992-4.7285,50.8866987l39,1.166c11.9668-31.8662181,20.6933-59.4305985,25.2187-74.0487981Z"></path><path fill="url(#P)" d="m258.2783,1341.5469179c-.1816.5195-.7793.9453-1.3301.9453h-38.5839c-.5489,0-1-.4512179-1-1v-6.5839998c0-.5508.4511-1,1-1h41.5859c.5488,0,.8516.4237819.6699.9434l-2.3418,6.6952998Z"></path></g><g><path fill="#f4aa74" d="m375.0303,1079.9287246s13.7597,22.8456994,19.0644,28.8632754c3.7989,4.3203237,9.3653-1.4413761,12.8282-4.918,3.455-3.477476.7109-21.5995755-6.3614-35.3710752-5.4199-10.5467997-25.459,9.1064998-25.5312,11.4257997Z"></path><path fill="url(#Q)" d="m321.0752,1012.626c6.6914,21.1299,41.8477,87.438524,41.8477,87.438524,0,0,7.1875,1.4658,20.4746-4.0439999,19.9472-8.2831998,24.2343-16.5927996,24.2343-16.5927996,0,0-13.4863-48.3623246-25.6777-79.9277246-9.6445-24.9756-33.1074-36.2451-51.3809-26.1123-14.9687,8.3037-13.2402,27.4307-9.498,39.2383Z"></path></g><path fill="url(#R)" d="m347.3506,967.835c32.9277,10.164,30.1973,39.0546,28.9902,56.7324-6.9453,101.8603234-11.2793,133.5273226-11.2793,133.5273226,0,0-23.9082,19.5888995-77.2402,7.7577998-69.2578-15.3729996-70.1016-55.5741986-70.1016-55.5741986,0,0,34.6348-76.0176238,54.6133-126.0722238,6.3965-16.0352,24.8613-25.7256,52.7754-21.7276,7.9687,1.1455,14.1211,2.8447,22.2422,5.3565Z"></path><path fill="#1a1a2e" d="m366.4941,935.0444c10.3243-9.872,12.7364-41.1074-2.9277-46.5913-19.3564-6.7768-20.0469,13.4463-31.2519,14.1802-24.3829,1.6094-29.9307,17.7432-25.6016,36.689,2.6816,11.7304,12.9316,17.5703,24.1367,19.7807,4.959.981,2.9551-11.6572,14.8955-18.6548,11.9434-6.998,20.749-5.4038,20.749-5.4038Z"></path><path fill="#1a1a2e" d="m359.4189,974.1396c-.4726,10.3174,1.3106,33.7598-21.9414,27.0245-27.3203-7.9043-26.5195-37.8916-24.2129-40.7627,5.2383-6.5332,15.2872.0722,22.1583,2.1611,6.8671,2.0967,24.3945,2.8311,23.996,11.5771Z"></path><path fill="#f4aa74" d="m320.6553,961.5459c1.3633.2051,2.7363.4414,4.1601.7256,7.8848,1.6084,13.9258,3.668,21.877,6.6494,2.5117.9355,4.7754,1.9844,6.8203,3.1387-.6543,6.623,1.5195,25.8945-16.1055,21.3242-18.0976-4.7002-18.6054-25.7764-16.7519-31.8379Z"></path><path fill="#f4aa74" d="m325.7041,967.8247c3.2344-20.2202,6.4248-23.2798,11.1191-38.7978-.042-.5621,23.0909,1.5097,28.0762-10.524,0,0,2.7998,14.9219,1.6914,27.5772-1.039,11.9428-4.0293,18.6118-16.0234,13.9048.4726,5.7568-.8897,12.4692-.4121,17.5112.9502,10.1704-5.9483,12.9761-10.7852,12.7324-4.8408-.2544-16.6582-3.6914-13.666-22.4038Z"></path><g><path fill="#1a1a2e" d="m287.8662,1148.5889228c-.6562,2.6991999,1.082,4.9081999,3.8594,4.9081999h99.7637c2.7753,0,5.5839-2.2089999,6.2382-4.9081999l17.2286-71.1445982c.6523-2.6971999-1.084-4.9061999-3.8614-4.9061999h-99.7617c-2.7773,0-5.5859,2.2089999-6.2383,4.9061999l-17.2285,71.1445982Z"></path><path fill="url(#S)" d="m287.8662,1148.5889228l17.2285-71.1445982c.6524-2.6971999,3.461-4.9061999,6.2383-4.9061999h4.7949c-2.7773,0-5.584,2.2089999-6.2363,4.9061999l-17.2285,71.1445982c-.6563,2.6991999,1.082,4.9081999,3.8594,4.9081999h-4.7969c-2.7774,0-4.5156-2.2089999-3.8594-4.9081999Z"></path><g><path fill="url(#T)" d="m365.7041,1114.0166237c1.8125-8.1601998-2.2871-14.7772996-9.1602-14.7772996-6.8691,0-13.9101,6.6170998-15.7226,14.7772996-1.8145,8.1601998,2.2871,14.7772996,9.1582,14.7772996,6.8691,0,13.9082-6.6170998,15.7246-14.7772996Z"></path><path fill="url(#U)" d="m346.8799,1114.0166237c1.5351-6.9159998,6.8301-12.7069997,12.5898-14.3163996-.9062-.2871-1.8789-.4609-2.9258-.4609-6.8691,0-13.9101,6.6170998-15.7226,14.7772996-1.8145,8.1601998,2.2871,14.7772996,9.1582,14.7772996,1.0469,0,2.0957-.1699233,3.1309-.4609233-5.0469-1.6093766-7.7696-7.3983765-6.2305-14.3163763Z"></path></g></g><g><path fill="#f4aa74" d="m202.9717,1035.1768s-18.6738,19.0468252-23.168,25.687525c-3.2266,4.759675,3.7402,8.6991998,7.9785,11.1835997,4.2324,2.4784999,21.084-4.7207999,32.6485-15.0214996,8.8496-7.8868251-15.1973-22.3594251-17.459-21.8496251Z"></path><path fill="url(#V)" d="m286.2744,968.1631c-23.0762,11.7715-96.8164,73.8008-96.8164,73.8008,0,0,.3828,7.33,9.0469,18.810525,13.0156,17.2343996,22.1367,19.308575,22.1367,19.308575,0,0,21.3711-11.7597752,43.3691-26.2323748,10.7539-7.0742252,13.7227-13.7246252,22.4532-40.2461252,5.3515-16.2637,10.8437-51.0703-.1895-45.4414Z"></path></g><g><path fill="#f4aa74" d="m285.1631,1112.2412237c3.1797-1.1133,13.3008-3.7499999,14.1758-1.2168,2.0781,5.9941998-4.5078,4.4843999-9.4551,10.7870997-3.1973,4.0722999-16.0527-1.6777-16.0527-1.6777,0,0,4.6953-5.5918235,11.332-7.8925998Z"></path><path fill="#f4aa74" d="m195.5615,1056.4111252c24.5606,10.2929997,69.7735,57.0878748,81.8809,60.3476985,7.8652,2.1171764,12.1426-4.9745999,24.9199,3.8222999,6.1934,4.2635999,2.0586,24.6112994-5.4355,25.2909994-17.1485,1.5605-23.4766-6.6269998-25.2852-18.5702995-4.457-5.6152999-62.625-35.1758234-78.2559-44.7168234-7.0586-4.3066754-17.1621-11.4863752-15.3984-17.168,2.8066-9.0487748,8.457-12.8241748,17.5742-9.0058748Z"></path></g><path fill="#f4aa74" d="m325.1416,936.479c-1.4873,2.9526.8428,7.1274,5.2158,9.3325,4.3633,2.1944,7.0596.8677,8.5459-2.0815,1.4903-2.9551,1.2207-6.4048-3.1572-8.607-4.3711-2.2065-9.1152-1.5922-10.6045,1.356Z"></path></g><g><g><path fill="#fb8b2d" d="m595.8525,1188.0186218h-137.9951c-2.2392,0-4.0703,1.831-4.0703,4.0692999v95.4125976c0,2.2372999,1.8311,4.0692999,4.0703,4.0692999h137.9951c2.2403,0,4.0713-1.832,4.0713-4.0692999v-95.4125976c0-2.2382999-1.831-4.0692999-4.0713-4.0692999Z"></path><path fill="#fa5600" d="m595.8525,1188.0186218h-137.9951c-2.2392,0-4.0703,1.831-4.0703,4.0692999v36.6098991h146.1367v-36.6098991c0-2.2382999-1.831-4.0692999-4.0713-4.0692999Z"></path><path fill="url(#W)" d="m473.5811,1192.088c0-2.2383782,1.3339-4.0693782,2.9658-4.0693782h-18.6895c-2.2392,0-4.0703,1.831-4.0703,4.0693782v36.6098208h19.794v-36.6098208Z"></path><path fill="url(#X)" d="m453.7871,1228.6978208v58.8026985c0,2.2372999,1.8311,4.0692999,4.0703,4.0692999h18.6895c-1.6319,0-2.9658-1.832-2.9658-4.0692999v-58.8026985h-19.794Z"></path><path fill="url(#Y)" d="m506.9717,1177.1597221c0-1.0367221.875-1.9136,1.9121-1.9136h33.1875c1.0381,0,1.9141.8768779,1.9141,1.9136v10.8588997h7.6523v-10.8588997c0-5.2748999-4.291-9.5663998-9.5664-9.5663998h-33.1875c-5.2754,0-9.5664,4.2914999-9.5664,9.5663998v10.8588997h7.6543v-10.8588997Z"></path><g><path fill="#082947" d="m473.4394217,1185.6836219h11.4716783c.9928399,0,1.7989.8060601,1.7989,1.7989v4.6439998c0,.9930607-.8062393,1.7993-1.7993,1.7993h-11.4703c-.9933367,0-1.7998-.8064633-1.7998-1.7998v-4.6435781c0-.9927967.806025-1.7988217,1.7988217-1.7988217Z"></path><rect width="15.069" height="8.242" x="567.002" y="1185.684" fill="#082947" rx="1.799" ry="1.799"></rect></g></g><g><path fill="#0f1b29" d="m565.3506,1430.5723157c-.0469-.7486-.1319-1.3877-.2363-1.9673157-.9385-5.2631841-4.0596-4.1562841-6.1182-3.4970842-.3789.1230842-1.6445.4707-3.4512.9536-1.8086-.4829-3.0742-.8305158-3.4512-.9536-2.0556-.6592-5.1816-1.7661-6.1191,3.4970842-.1035.5796157-.1914,1.2187157-.2383,1.9673157-.456,7.5047998-.7422,9.8519998-.7422,9.8519998,0,0,4.6036.0283,10.5508.0405,5.9453-.0122,10.5528-.0405,10.5528-.0405,0,0-.2901-2.3471999-.7471-9.8519998Z"></path><path fill="#f4aa74" d="m598.2256,1168.708s-17.2031,93.9268199-21.418,112.5869195c-4.2178,18.6532995-41.1084,16.5820805-47.0683-9.4447998-5.9541-26.0316993-14.21-65.1605984-5.544-104.2191974,5.4443-24.5410994,9.0742-25.5097994,29.3955-37.2089991,20.3301-11.7055997,49.2979,12.9872997,44.6348,38.2860767Z"></path><path fill="#f4aa74" d="m580.0527,1265.4648199c-2.1298,29.3095993-21.125,163.6581801-21.125,163.6581801,0,0-.5859,1.2227157-4.1132.6851157-3.4395-.52-3.9834-2.6376999-3.9834-2.6376999,0,0,.1884-18.7899995-3.2676-32.1444992-3.4561-13.3627997-13.1201-75.2851981-15.4531-91.9760977-2.3292-16.6854996-2.6709-51.5360987,16.4736-52.6166987,19.1455-1.0806,31.7197,11.6337997,31.4687,15.0316996Z"></path></g><g><path fill="#0f1b29" d="m691.9355,1433.6631156s-26.7177-12.0224997-28.6445-13.0131997c-2.1289-1.0972-5.4678-2.9955999-7.1748,4.3290841-1.7031,7.3228157-2.3779,9.5874156-2.3779,9.5874156,0,0,32.3691,5.6757999,35.9258,5.8852999,3.5537.2075,6.7539-1.9419,2.2714-6.7885998Z"></path><path fill="#f4aa74" d="m638.9775,1162.9033225s26.3623,79.276398,31.4639,97.7123975c5.0996,18.4311995-18.9248,43.6620989-36.4795,23.5400994-17.5449-20.1313995-50.7949-57.9648985-58.9971-81.7368979-8.2041-23.7635994-8.666-43.8763989,3.7188-63.7909984,12.3867-19.9232995,54.9502,7.4677998,60.2939,24.2753994Z"></path><path fill="#f4aa74" d="m671.7354,1267.8091198c.1728,29.3842993.6083,30.8143992.3457,48.9603988-.4131,28.3437993-2.2188,107.6279973-2.2188,107.6279973,0,0-.3037,1.9144841-4.1943,3.1898999-2.2178.728-4.0723-.9106-4.0723-.9106,0,0-1.4395-20.1401995-5.9629-33.1738992-4.5273-13.0380997-22.3369-78.615198-26.0078-95.0599976-3.668-16.4433996-3.6387-46.5180988,15.3564-49.1381988,18.9991-2.6225999,26.6885,6.9408998,26.754,18.5043995Z"></path></g><path fill="#1a1a2e" d="m640.8008,1161.7041225c10.2978,30.8251992,29.2754,87.2582978,30.3359,91.7567977,1.0606,4.4975999,3.125,23.1655994-51.04,34.8608991-52.8594,11.4144997-92.502.98-92.502.98,0,0-11.0693-35.8593991-11.0693-78.784198,0-42.9242989,0-30.3017992,0-30.3017992,0,0,8.3633-36.8861991,52.5293-39.885199,44.166-2.997623,66.3379,5.190377,71.7461,21.3734995Z"></path><g><g><path fill="#f4aa74" d="m535.2383,1164.7212224c2.5234,3.1962999,4.7353,6.7919998,3.2734,8.6796998-2.2998,2.9696999-5.2666-2.3876999-11.834-4.8490999-4.3047-1.6158223-3.2959-10.2954997-3.2959-10.2954997,0,0,7.9922,1.5591,11.8565,6.4648998Z"></path><path fill="#f4aa74" d="m500.3916,1087.8369244c10.2979,23.5985994,18.2998,53.6513986,24.5947,70.6078982,2.7588,7.4286998,12.1875,17.1933996,9.2178,20.4281774-3.7061,3.765722-15.4248,7.1729219-18.1963,2.171922-2.1787-3.9320999-4.3105-13.2416997-.3252-19.4847995.3916-6.3666998-27.2842-43.0191225-31.9267-58.6093985-2.1036-7.0400998-4.1553-16.8569996.3896-19.5854995,7.2402-4.3358999,12.499-3.4637999,16.2461,4.4716999Z"></path></g><g><path fill="#f4aa74" d="m492.6504,1064.5869249s-8.5108,15.2128996-10.4854,21.9325994c-1.4179,4.8158999,3.4659,11.8158997,7.6426,12.7470997,4.1729.9351,16.2793-9.5214998,23.1475-21.1498995,5.2627-8.9087246-18.5615-14.5541996-20.3047-13.5297997Z"></path><path fill="#ea5b34" d="m527.2803,1019.6206c-31.5576,20.208-47.877,51.4849248-47.877,51.4849248,0,0,2.9571,9.1493998,13.8389,15.3851996,9.9336,5.6791999,16.0264,4.9613999,16.0264,4.9613999,0,0,22.9677-25.0135994,43.621-39.315399,5.8448-4.0395253,23.1026-17.6108253,17.0479-26.8970253-7.2744-11.1689-21.7881-18.9858-42.6572-5.6191Z"></path></g></g><g><path fill="#f4aa74" d="m717.7236,1071.7734248c3.6094-1.8847,7.5537-3.3910999,9.1377-1.6025,2.4893,2.8134999-3.3242,4.7318999-6.9658,10.7255997-2.3877,3.9310999-10.7275,1.3247-10.7275,1.3247,0,0,3.0175-7.5629998,8.5556-10.4477997Z"></path><path fill="#f4aa74" d="m635.7012,1091.7168243c25.1015-5.7299999,56.1172-8.0038998,73.9492-11.0375997,7.8125-1.3291,19.1592-8.7777998,21.7861-5.2582999,3.0108,4.3417999,4.1807,16.4906996-1.25,18.2826995-4.2685,1.4092-13.8115,1.773-19.206-3.3031999-6.1817-1.5693-47.3409,18.8080995-63.5215,20.4740995-7.3086.7554-17.3369.9468-19.1729-4.0267999-2.9131-7.9208998-1.0791-12.9243997,7.4151-15.1308996Z"></path></g><path fill="#f4aa74" d="m553.1357,1012.9141c.1553-7.8252-.4404-11.8697.1202-19,22.3984-6.333,24.1972-22.9761,23.705-32.6309,0,0,4.752,11.5454,6.4493,23.2339,1.2744,10.3813,1.3974,14.1777-9.4473,14.9975.9805,7.3663,1.5596,8.3702,2.1846,13.7227,1.0332,8.8501-2.6748,12.4541-6.7373,13.6279-4.0567,1.1744-16.6016,2.5791-16.2745-13.9511Z"></path><path fill="url(#Z)" d="m606.3203,1030.7104c-5.2158-14.4023-9.5869-23.8657-34.5664-22.142-7.4014.5092-12.8203,1.769-19.7861,2.6337-24.0762,2.9815-31.6914,17.3916-35.0703,43.7232252-8.5186,66.3959983-2.2256,130.0184967-2.2256,130.0184967,0,0,13.0146,7.6240998,70.7422-3.0682999,46.8623-8.6816998,56.2412-21.0736995,56.2412-21.0736995,0,0-24.6504-100.5869975-35.335-130.0914225Z"></path><g><path fill="#f4aa74" d="m611.418,1095.001s13.3642,11.1904239,19.5986,14.3803238c4.4697,2.2871999,12.2559-1.2084,13.9463-5.1390999,1.6963-3.9267999-6.3281-17.7670996-16.4775-26.6776993-7.7735-6.8271998-17.751,15.5331996-17.0674,17.4364754Z"></path><path fill="url(#aa)" d="m573.6738,1052.6138252c13.9893,34.7640991,41.6856,56.6151748,41.6856,56.6151748,0,0,9.5381-1.2045762,17.6894-10.7377759,7.4268-8.7030998,7.8545-14.8242241,7.8545-14.8242241,0,0-20.3056-27.2191749-30.5195-50.1709-2.8818-6.4922-13.0068-25.9732-23.2568-21.7524-12.3272,5.0712-22.7071,17.8784-13.4532,40.8701252Z"></path></g><path fill="#1a1a2e" d="m573.5186,1009.022c-8.7051-21.5982,1.5771-29.0616,2.6953-31.2622,2.0976-4.1231,6.5107-9.7598,2.999-16.9971-4.6436-9.5571-10.8701-21.418-32.9492-18.3623-18.3936,2.5459-29.4121,24.4492-33.3858,61.3037-1.7871,16.5713-31.5615,15.6494-44.5957,51.4697252-8.0078,22.0053994,2.2451,57.3149986,41.9834,69.0898983,22.1592,6.5658998,91.8946-1.4322,85.667-63.6318984-1.5644-15.619625-19.7412-44.980425-22.414-51.609825Z"></path><path fill="#f4aa74" d="m567.1104,974.647c-1.7051,2.3301-.3018,6.2607,3.1337,8.7842,3.4463,2.5249,7.6211,2.6845,9.3252.3584,1.71-2.3306.3067-6.2627-3.1396-8.7857-3.4365-2.5215-7.6152-2.6777-9.3193-.3569Z"></path></g><g><path fill="#d81703" d="m1268.4628893,1442.0802154h18.9882995l29.9218112-104.9628973h187.6787833l-29.9238992,104.9628973h18.9882995l203.6679949-714.4219154h-225.6532943l-203.6679949,714.4219154Zm368.1981907-566.6221154h-187.6796953l36.9296991-129.5405h187.6796953l-36.9296991,129.5405Zm-42.1346989,147.7998h-187.6786953l36.9295991-129.54h187.6787953l-36.9296991,129.54Zm-42.1337989,147.7993223h-187.6786953l36.9286991-129.5395223h187.6786953l-36.9286991,129.5395223Zm-229.8144942,147.8002963l36.9296991-129.5405185h187.6786953l-36.9296991,129.5405185h-187.6786953Z"></path><path fill="#fd5313" d="m1706.0272782,727.6583h-225.6532782l203.668,714.4219154h18.9882783l-29.9238992-104.9628973h187.6788209l29.9218,104.9628973h18.9883l-203.6680218-714.4219154Zm-201.4598949,18.2593h187.6796953l36.9296991,129.5405h-187.6796953l-36.9296991-129.5405Zm42.1346989,147.8003h187.6787953l36.9295991,129.54h-187.6786953l-36.9296991-129.54Zm42.1347989,147.7998h187.6786953l36.9286991,129.5395223h-187.6786953l-36.9286991-129.5395223Zm79.064498,277.3398185l-36.9296991-129.5405185h187.6786953l36.9297246,129.5405185h-187.6787208Z"></path></g><g><g><g><path fill="#ee9255" d="m1783.3368763,1039.3232s-25.8593993-1.6992-33.4179992-3.6015c-5.4198771-1.3545-2.9286999-8.7246-1.4707-13.2666,1.4649-4.5342,18.3359995-10.2349,33.3779992-10.2627,11.5204997-.022,3.4813999,26.0351,1.5107,27.1308Z"></path><path fill="url(#ab)" d="m1844.749,1041.7485c-21.5332247.4009-75.5976233,1.4092-75.5976233,1.4092,0,0-4.4677999-5.5537-5.6347999-19.4819-1.7324-20.9126,3.5321999-28.3208,3.5321999-28.3208,0,0,47.7685988-9.8975,80.4580233-13.438,25.8623-2.8013,32.5088,5.1631,28.4297,32.4131-2.4629,16.4507-15.5566,27.1274-31.1875,27.4184Z"></path></g><g><path fill="#ee9255" d="m1795.394476,933.9902c2.6855999-.2578,10.7949997-.2558,10.7929997,1.5879-.0049,5.2569-12.2118997,10.6826-19.9657995,9.0718-4.0605999-.8433-.3535-4.1475-.3535-4.1475,0,0,3.9248238-5.9887,9.5262998-6.5122Z"></path><path fill="#ee9255" d="m1740.0985774,1022.1924c2.8515999-25.7207,30.9501992-71.1655,36.9228991-84.4551-.3389-7.5644,1.1806-11.3037,3.0985999-20.9551.6279236-3.1421,21.2559236,1.2285,22.0185994,5.3643.6289,3.3999.2754,18.376-14.8017996,21.0937-5.3964999,4.4004-17.6473996,56.6016-22.2489994,73.791-2.0741999,7.7627-5.9901998,19.148-11.7694997,19.0655-9.2079998-.1284-14.2753771-4.3599-13.2197997-13.9043Z"></path></g></g><g><path fill="url(#ac)" d="m1827.835,1087.5122244c.9061751,0,1.9354751-.3106,1.9354751-1.2168v-1.1524244c0-.9081756-1.0293-1.6307755-1.9354751-1.6307755h-47.832c-.9063236,0-1.2325236.7226-1.2325236,1.6307755v1.1524244c0,.9062.3262,1.2168,1.2325236,1.2168h47.832Z"></path><path fill="url(#ad)" d="m1783.2255763,1083.3188245c.5899,2.4257999-.9725763,4.1933999-3.4667999,4.1933999h-89.6249977c-2.4921999,0-5.0155999-1.7676-5.6014999-4.1933999l-15.4785996-63.6563245c-.5859-2.4238.9746-4.1503,3.4687999-4.1503h89.6210977c2.4960999,0,5.0194999,1.7265,5.6054232,4.1503l15.4765763,63.6563245Z"></path><path fill="url(#ae)" d="m1783.2255763,1083.3188245l-15.4765763-63.6563245c-.5859233-2.4238-3.1093232-4.1503-5.6054232-4.1503h-4.3085768c2.4960769,0,5.0175768,1.8339,5.6034768,4.2597l15.4785232,63.6211c.5898764,2.4258244-.9722236,4.1192244-3.4687235,4.1192244h4.3104999c2.4942236,0,4.0566999-1.7676,3.4667999-4.1933999Z"></path><g><path fill="url(#af)" d="m1713.2992781,1052.477c-1.6284-7.332,2.0571999-13.2754,8.2289998-13.2754,6.1699998,0,12.4960997,5.9434,14.1249996,13.2754,1.629,7.3301251-2.0584999,13.2734249-8.2264998,13.2734249-6.1718998,0-12.4960997-5.9432998-14.1274996-13.2734249Z"></path><path fill="url(#ag)" d="m1730.21,1052.477c-1.3789223-6.2129-6.1348222-11.416-11.3106221-12.8613.8125-.2578,1.6895-.4141,2.6288999-.4141,6.1699998,0,12.4960997,5.9434,14.1249996,13.2754,1.629,7.3301251-2.0584999,13.2734249-8.2264998,13.2734249-.9409,0-1.8827777-.1504249-2.8144999-.4121,4.5351999-1.4472,6.9804998-6.6464998,5.5977222-12.8613249Z"></path></g></g><g><g><path fill="url(#ah)" d="m1835.134775,1126.8823234s-43.7519989,96.9164976-51.7206987,116.6772971c-7.9579998,19.7635995,27.1463993,41.240699,49.0926988,21.1683796,21.9453249-20.06,51.8047249-48.3094789,63.8702249-73.5765783,12.0537-25.2734994,15.0937-47.4614988,3.8916-71.0571982-11.2002-23.5956994-53.375-19.3343995-65.133825,6.7880998Z"></path><g><path fill="#0f1b29" d="m1794.044876,1433.9541156s31.5702992-8.2567998,33.870124-8.9931998c2.543-.8125,6.559575-2.2729158,7.080075,6.0839998.5127,8.3559998.8272,10.9716997.8272,10.9716997,0,0-36.5956991.2339-40.538099-.1953-3.9355999-.4331-7.0595998-3.3813999-1.2393-7.8671998Z"></path><path fill="url(#ai)" d="m1838.1698749,1261.32522c.4981251-18.7528995-5.6757999-32.7392992-26.9950993-31.5443992-21.3212995,1.2046-30.7431992,12.0267997-28.6171993,23.2670994,4.8486999,25.6454994,6.6396998,25.4334994,13.4257997,56.2679986,2.7479999,12.4848997,7.5028998,34.4926991,12.1884997,56.2641986h24.2714994c2.3827999-33.8632991,5.3592999-90.2157977,5.7264999-104.2548974Z"></path><path fill="#f4aa74" d="m1830.3603751,1389.6597167c.5459-3.8305999,1.2812-12.6825997,2.0829999-24.0795994h-24.2714994c6.8876998,31.9979992,13.6249997,63.4862984,13.6249997,63.4862984,0,0,2.4843999,2.0092999,5.0614999,1.3633,3.8690999-.9639,4.0858999-3.2387999,4.0858999-3.2387999,0,0-2.7362751-22.3153994-.5839-37.5311991Z"></path></g><path fill="#1a1a2e" d="m1871.9238,1136.8862231s30.7041,113.5878971,36.5742,133.6113966c5.8731,20.0145995,45.8858,15.2264996,50.586-13.5161997,4.6924-28.7430993,15.5439-86.9208978-5.6768-145.3905963-11.4795-31.6220992-88.2959-1.9223-81.4834,25.2953994Z"></path><path fill="#101b29" d="m1931.5088,1431.3125157c.0478-.8164.1406-1.5103.2519-2.1445157,1.0137-5.7377841,4.42-4.542,6.667-3.8300842.4131.1333,1.793.5127,3.7666,1.0347,1.9727-.5298,3.3496-.9151,3.7627-1.0484,2.2383-.7231,5.6446-1.9365,6.6797,3.8012999.1172.6328.2119,1.3266.2647,2.1420999.5136,8.1849998.832,10.7465997.832,10.7465997,0,0-5.0215.039-11.5078.0659-6.4824.001-11.5078-.0171154-11.5078-.0171154,0,0,.3095-2.5624845.791-10.7504843Z"></path><path fill="#1a1a2e" d="m1958.6436,1292.5669192c1.3877-18.3197995-.6299-56.2812986-21.5459-56.1415986-20.9122.1401-33.7276,14.8432996-33.2237,18.5248995,2.3828,17.4569996,12.4903,69.1083983,21.1114,112.0893972h26.6132c2.8594-26.1123993,6.0918-61.9336173,7.045-74.4726981Z"></path><path fill="#f4aa74" d="m1951.5986,1367.0396173h-26.6132c7.0625,35.2098991,13.1269,64.6024984,13.1269,64.6024984,0,0,.7217,1.2915,4.5244.4668,3.708-.8062,4.1533-3.1459999,4.1533-3.1459999,0,0-1.4931-20.4374995,1.3496-35.2133991.8995-4.6688999,2.1397-14.6561996,3.459-26.7098993Z"></path><path fill="url(#aj)" d="m1806.9833757,1371.5244172c-.5498-.0039-1.082-.4497-1.1836-.9902l-1.7519-9.3935998c-.1016-.5405.2666-.9765.8164-.9692l31.5633992.4341c.5498.0073.875.4458.7217.9741l-2.6561999,9.1859998c-.1524.5283-.7276.9571-1.2774.9531l-26.2323993-.1943Z"></path><path fill="url(#ak)" d="m1924.666,1371.5244172c-.5498-.0039-1.082-.4497-1.1836-.9902l-1.7519-9.3935998c-.1016-.5405.2666-.9765.8164-.9692l32.9033.4341c.5498.0073.875.4458.7217.9741l-2.6563,9.1859998c-.1523.5283-.7275.9571-1.2773.9531l-27.5723-.1943Z"></path></g><path fill="url(#al)" d="m1862.8848,976.4287c-33.0909249,5.1221-34.6250248,34.9356-33.9473249,59.9082,2.2060999,81.1987236-10.1923997,117.7183227-10.1923997,117.7183227,0,0,12.6044997,15.9554996,65.9815246,18.3719995,68.8623,3.1191999,81.7861-22.2538994,81.7861-22.2538994,0,0-14.1914-95.0931976-31.292-140.0517228-5.9639-15.6782-22.7969-35.6055-50.2002-35.7031-7.8193-.024-13.9736.7397-22.1357,2.0102Z"></path><g><path fill="#1a1a2e" d="M1854.0449 936.2729c-9.8330252-9.8017-11.5351252-40.2114 3.7881-45.226 18.9356-6.1953 19.1953 13.4756 30.0615 14.4175 23.6475 2.06 28.7051 17.8559 24.1133 36.1792-2.8408 11.3466-15.3447 21.7885-27.4765 24.2417-4.8155.9736 1.0068-16.8916-10.4473-23.9341-11.457-7.0508-20.0391-5.6783-20.0391-5.6783zM1849.9521 980.7871c-1.0039 9.9849-6.0273252 32.2676 17.2774 29.0767 27.3789-3.7398 30.8447-32.6817 29.0342-35.7652-4.1143-7.0229-14.709-2.0908-21.6084-1.0522-6.8985 1.0444-23.8516-.7246-24.7032 7.7407z"></path><g><path fill="#f4aa74" d="m1888.9971,974.1523c-1.3408.0054-2.6953.0381-4.1035.1109-7.8077.4331-13.9053,1.56-21.9707,3.3022-2.545.545-4.8711,1.2354-7.002,2.0562-.3057,6.4585-5.1152,24.6787,12.4736,22.7729,18.0625-1.9619,21.5264-22.1538,20.6026-28.2422Z"></path><g><path fill="#f4aa74" d="m1886.0293,976.4673c-2.2637-17.1909-1.2852-26.9092-4.3643-42.3579.0879-.5396-22.4726-.7075-26.1621-12.8194,0,0-4.1133,14.1695-4.2314,26.5142-.1152,11.6455,2.1494,18.3774,14.1904,14.9517-1,5.5244-3.0918,11.958-4.8203,16.5669-3.4746,9.2949,2.2783,13.6816,6.8779,14.6811,4.6045.9937,20.917.7207,18.5098-17.5366Z"></path><path fill="#f4aa74" d="m1892.6846,940.5273c1.164,2.9956-1.4795,6.8169-5.9121,8.5411-4.4287,1.7158-8.9668.685-10.1309-2.3077-1.1621-3,1.4824-6.8178,5.9219-8.539,4.4277-1.7266,8.9619-.6851,10.1211,2.3056Z"></path></g></g></g></g><g><path fill="#1a1a2e" d="m1858.4912,1009.126l3.5283,9.8467,7.7998.229,6.1172-12.9937s-12.4541-4.312-17.4453,2.918Z"></path><path fill="#1a1a2e" d="m1862.0195,1018.9727l-11.8174,104.6743,17.419,42.4941224,16.9102-41.488799-14.712-105.4506234s-2.748-4.9883-7.7998-.229Z"></path></g><g><g><path fill="#f4aa74" d="m1740.252,1077.8066246c-1.7481226-2.7669999-7.8467224-10.8949997-10.0459224-9.4969998-5.2040776,3.3011999.7177,6.1356998.665,13.9232996-.0322,5.0297999,13.2235997,8.4316998,13.2235997,8.4316998,0,0-.1894-7.0927998-3.8426773-12.8579997Z"></path><path fill="#f4aa74" d="m1842.1571748,1089.5474243c-24.9051748-7.0297998-87.5878978,1.2099-98.7665975-3.6337999-7.2645773-3.1469999-6.2255773-11.1298997-21.2655773-12.1656244-7.288122-.5042753-18.627,6.2774246-13.3418218,11.3301244,12.0995997,11.5580997,24.0409994,20.3510995,32.6386992,12.3622997,6.7899998-1.5757,68.9012983,11.1279997,86.5594978,13.3241997,7.9716998.9957,19.9991248,1.648,22.0918248-3.7391999,3.3389-8.5810998,1.3262-14.8681996-7.9160252-17.4779996Z"></path></g><g><path fill="#f4aa74" d="m1851.8975,1072.5205247s-14.9414251,21.1737995-18.216825,28.2460993c-2.3535999,5.0648999,4.9413999,7.7597998,9.3934998,9.482376,4.4473252,1.7173237,19.4863252-7.814376,28.9717252-19.4940757,7.2588-8.9433998-18.0586-19.0771995-20.1484-18.2343995Z"></path><path fill="url(#am)" d="m1909.6953,1007.0801c-20.1797,15.0425-69.7021251,74.0537245-69.7021251,74.0537245,0,0,1.5117,6.9701755,11.6093251,16.6312996,15.167,14.5029996,24.2383,15.0693996,24.2383,15.0693996,0,0,22.3086-17.6625996,41.1504-34.9692991,9.2119-8.4598998,26.834-19.6185995,20.334-45.1186246-6.9922-27.4312-16.0039-34.333-27.6299-25.6665Z"></path></g></g><g><g><polygon fill="url(#an)" points="1839.944 933.111 1759.862 892.208 1750.896 913.34 1835.957 942.508 1839.944 933.111"></polygon><g><path fill="#d13b49" d="m1700.4667784,856.7427c-.9629-.4898-2.0937784-.0786-2.5155999.914l-14.9218996,35.1685c-.4209.9936.0693,2.0928,1.0908,2.4434l66.6103983,22.8427c1.0215229.3506,2.2010999-.1762,2.6219999-1.1699l10.8056997-25.4683c.4219-.9936-.0186-2.2075-.9795-2.6982l-62.7118984-32.0322Z"></path><path fill="#082947" d="m1684.6542788,898.064c-.3506.8261-1.3135,1.2153-2.1415999.8632l-3.5067999-1.4868c-.8272-.352-1.2237-1.3159-.8731-2.144l18.1933995-42.8775c.3506-.8237,1.3203-1.2128,2.1483999-.8623l3.5048999,1.4883c.8301.3516,1.2168,1.3155.8682,2.1416l-18.1933995,42.8775Z"></path></g><path fill="#082947" d="m1837.5536749,944.4946c-.3486.8242-1.3164,1.2149-2.1405999.8653l-3.5097999-1.4903c-.8262-.3506-1.2148-1.3144-.8632751-2.1406l4.925775-11.6118c.3506-.8272,1.3145-1.2188,2.1396999-.8682l3.5106999,1.4893c.8242.3496,1.2168252,1.3164.8643,2.1445l-4.9267999,11.6118Z"></path></g><polygon points="1753.355 916.935 1754.375 914.533 1754.374 914.532 1753.355 916.935"></polygon><polygon fill="url(#ao)" points="1753.352 916.941 1753.355 916.935 1753.352 916.941 1753.352 916.941"></polygon><polygon fill="url(#ap)" points="1832.517 938.245 1832.651 937.928 1757.003 908.338 1756.595 909.302 1756.592 909.305 1754.375 914.533 1831.375 940.938 1831.04 941.729 1831.04 941.729 1832.516 938.25 1832.517 938.245"></polygon><path fill="url(#aq)" d="m1754.464777,909.311l-63.9660984-25.0207-5.8444999,13.7739s0-.0001.0001-.0002l.9678-2.2788,65.1083984,22.3261c1.0215229.3506,2.2010999-.1762,2.6219999-1.1699l.0025229-.0061,1.019-2.4031.000577.0003,2.2176999-5.2273c-.173.393-1.1275.3982-2.1274999.0058Z"></path><path fill="#000001" d="m1837.2743749,940.9741l-3.5106999-1.4902c-.8225-.3482-1.3798-.9031-1.2478-1.2341l-1.476,3.4794c-.3512.8262.0373,1.7898.8634,2.1404l3.5097999,1.4903c.8242.3496,1.792-.0411,2.1404999-.8653l1.4796-3.4843c-.1396.3295-.9346.3125-1.7588-.0362Z"></path></g></g><g><g><path fill="#f4aa74" d="m1501.8173834,400.4897c-2.2021999-2.4838-9.6269998-9.6528-11.5478997-7.979-4.5555999,3.9497,1.7705163,5.9351,3.0712999,13.5987.8467,4.9477,14.4922164,6.5029,14.4922164,6.5029,0,0-1.4131167-6.9487-6.0156166-12.1226Z"></path><path fill="#f4aa74" d="m1604.2587808,398.2534c-25.7577808-3.5449-86.0858978,13.0313-97.9433975,9.7813-7.7010998-2.1118-8.0673833-10.0977-23.0643833-9.0835-7.2666159.4897-13.1699158,19.396-7.084,23.6499,13.9276837,9.726,23.1317835,6.0473,30.2147833-2.9702,6.4160998-2.4629,69.8183982,1.6225,87.5995978,1.3955,8.0253998-.1011,19.9863995-1.0816,21.1152995-6.6656,1.7988-8.8837-1.2744-14.7929-10.8378997-16.1074Z"></path></g><g><path fill="#f4aa74" d="m1601.8661809,381.0518s-4.6259999,25.0556-4.6122999,32.7627c.0059,5.5234,7.7841998,5.1713,12.5595997,5.0288,4.7753999-.1465,14.4188996-14.6226,18.0956995-28.9214,2.8182999-10.9488-24.4999994-10.4424-26.0429993-8.8701Z"></path><path fill="url(#ar)" d="m1625.6854803,300.7861c-12.2196997,21.3418-31.1151992,92.5826-31.1151992,92.5826,0,0,4.3095999,5.788,17.5722996,10.7421,19.9110995,7.4434,28.4110993,4.4971,28.4110993,4.4971,0,0,18.7157995-41.0171,28.5946993-64.0142,4.8300999-11.2431,4.8398999-22.8466-7.4940998-43.0136-11.6522794-19.0528-30.1220992-11.002-35.9687991-.794Z"></path></g></g></g></g></g></g></svg>